<svg width="29" height="22" viewBox="0 0 19 22" fill="black" xmlns="http://www.w3.org/2000/svg">
<path fill-rule="evenodd" clip-rule="evenodd" d="M7.82716 19.356C8.34516 19.933 9.01016 20.25 9.70016 20.25H9.70116C10.3942 20.25 11.0622 19.933 11.5812 19.355C11.8592 19.048 12.3332 19.023 12.6402 19.3C12.9482 19.577 12.9732 20.052 12.6962 20.359C11.8882 21.256 10.8252 21.75 9.70116 21.75H9.69916C8.57816 21.749 7.51716 21.255 6.71216 20.358C6.43516 20.051 6.46016 19.576 6.76816 19.3C7.07616 19.022 7.55016 19.047 7.82716 19.356ZM9.74996 0.25C14.195 0.25 17.181 3.712 17.181 6.945C17.181 8.608 17.604 9.313 18.053 10.061C18.497 10.799 19 11.637 19 13.221C18.651 17.268 14.426 17.598 9.74996 17.598C5.07396 17.598 0.847956 17.268 0.502943 13.285C0.499956 11.637 1.00296 10.799 1.44696 10.061L1.6037 9.79716C1.98963 9.13386 2.31896 8.41235 2.31896 6.945C2.31896 3.712 5.30496 0.25 9.74996 0.25ZM9.74996 1.75C6.25496 1.75 3.81896 4.488 3.81896 6.945C3.81896 9.024 3.24196 9.985 2.73196 10.833C2.32296 11.514 1.99996 12.052 1.99996 13.221C2.16696 15.107 3.41196 16.098 9.74996 16.098C16.053 16.098 17.337 15.063 17.503 13.156C17.5 12.052 17.177 11.514 16.768 10.833C16.258 9.985 15.681 9.024 15.681 6.945C15.681 4.488 13.245 1.75 9.74996 1.75Z" fill="#2B2F48"/>
</svg>
