<svg width="54" height="36" viewBox="0 0 54 36" fill="none" xmlns="http://www.w3.org/2000/svg">
<path d="M0.502207 25.2619V15.3679C0.490436 15.2089 0.52575 15.0441 0.608152 14.9088C0.690553 14.7675 0.814155 14.6557 0.9613 14.585C2.4975 13.7375 4.01604 12.884 5.54635 12.0306C7.07666 11.1772 8.60697 10.3355 10.1314 9.48204C11.1496 8.90523 12.1502 8.29899 13.1685 7.72807C14.4221 7.02766 15.6935 6.35079 16.9472 5.65626C17.9419 5.09711 18.9248 4.52619 19.9313 3.96115C21.1673 3.26074 22.4092 2.5721 23.6629 1.8658C24.6693 1.29488 25.6699 0.718069 26.647 0.123602C26.7353 0.0529723 26.8471 0.00588581 26.9648 0C27.0825 0 27.1944 0.0294291 27.2944 0.094173C28.4833 0.794585 29.6782 1.48322 30.8789 2.16598C32.1384 2.9017 33.398 3.61389 34.6576 4.32607C35.9171 5.03825 37.1473 5.70335 38.3892 6.39788C39.6311 7.0924 40.9672 7.87522 42.2561 8.5874C43.2744 9.15832 44.3044 9.71159 45.3227 10.2825C46.5646 10.977 47.7947 11.6892 49.0543 12.3837C50.3138 13.0783 51.6381 13.8317 52.9448 14.5321C53.1214 14.6086 53.2685 14.7381 53.3686 14.9029C53.4686 15.0677 53.5098 15.256 53.498 15.4444V26.0918C53.498 26.7569 53.4215 26.8099 52.7505 26.7922C51.6617 26.7687 50.5728 26.7922 49.4839 26.7687C49.0778 26.7687 48.9012 26.9099 48.913 27.3455C48.9365 28.2754 48.913 29.1877 48.913 30.1295C48.913 30.5003 49.1308 30.5415 49.3956 30.5474H52.5269C52.6034 30.5474 52.6917 30.512 52.7447 30.5474C52.9036 30.6298 53.1567 30.718 53.1861 30.8534C53.245 31.1242 53.039 31.2831 52.7564 31.289H49.4957C49.1249 31.289 48.9189 31.4361 48.9307 31.8422C48.9307 32.7251 48.9483 33.608 48.9307 34.4967C48.9307 34.9146 49.1072 35.0912 49.5075 35.0912H52.5916C52.8624 35.0912 53.1861 35.0382 53.192 35.4149C53.192 35.7916 52.8977 35.7857 52.6034 35.7857H49.066C48.1714 35.7857 48.1125 35.7033 48.1184 34.8263V26.651C48.1184 26.0565 48.1773 25.9859 48.8071 25.9859H52.0678C52.7447 25.9859 52.7859 25.9152 52.7859 25.2501V15.927C52.7976 15.7445 52.7564 15.5621 52.6681 15.4032C52.574 15.2443 52.4386 15.1148 52.2738 15.0324C50.408 13.9788 48.5128 12.9429 46.6352 11.8835C45.3521 11.1654 44.0925 10.4238 42.8094 9.7057C41.8029 9.13478 40.7847 8.59917 39.7723 8.02825C38.9719 7.58092 38.1832 7.10417 37.3827 6.65685C36.388 6.0977 35.3874 5.55032 34.3986 5.00294C32.1973 3.7728 29.996 2.55444 27.8124 1.29488C27.5769 1.13008 27.3003 1.04179 27.0119 1.04179C26.7235 1.04179 26.4469 1.13008 26.2114 1.29488C24.7576 2.15421 23.2685 2.94879 21.7971 3.7728C20.3256 4.59682 18.7835 5.47969 17.2709 6.32725C15.9878 7.04532 14.6988 7.73396 13.4216 8.45202C12.4798 8.98175 11.5558 9.52913 10.6081 10.0589C8.87772 11.0418 7.14729 12.0188 5.41686 12.99L1.83829 14.9794C1.64994 15.0618 1.49691 15.203 1.39096 15.3796C1.28502 15.5562 1.23793 15.7563 1.25559 15.9623C1.27913 22.06 1.25559 28.1577 1.25559 34.2554C1.25559 35.0323 1.29091 35.0912 2.08549 35.0912H16.3056C16.7176 35.0912 16.8765 34.9382 16.8765 34.5556V30.977C16.8765 29.4467 16.8706 27.9164 16.853 26.3802C16.853 26.1389 16.8883 25.9211 17.2061 25.9388C17.5181 25.9564 17.6829 26.0741 17.6829 26.3979V30.0235C17.6829 30.6533 17.7476 30.7298 18.3892 30.718H20.6258C21.3733 30.718 21.4498 30.6592 21.438 29.9235C21.438 28.764 21.438 27.5986 21.4145 26.4332C21.4145 26.1507 21.5028 25.9623 21.7853 25.9564C22.0737 25.9505 22.2679 26.1095 22.2679 26.4508V35.1559C22.2679 35.4679 22.162 35.7445 21.8147 35.7386C21.4616 35.7386 21.4027 35.462 21.4027 35.1677C21.4027 34.1083 21.4027 33.0488 21.4263 31.9894C21.4263 31.5538 21.2615 31.4185 20.8495 31.4302C19.9372 31.4479 19.0307 31.4302 18.1184 31.4302C17.7947 31.4302 17.6593 31.5479 17.6652 31.8717C17.6652 32.9429 17.6652 34.02 17.6888 35.0971C17.6888 35.6739 17.4357 35.9034 16.8589 35.8328C16.6646 35.8034 16.4763 35.7857 16.2821 35.7857H2.03252C1.73234 35.7857 1.43805 35.8034 1.14376 35.8564C0.772954 35.9329 0.578723 35.7681 0.555179 35.409V25.2796H0.502207V25.2619Z" fill="white"/>
<path d="M44.6577 27.8812L43.7336 29.4527C43.1392 30.471 42.5388 31.4833 41.9502 32.5016C41.8737 32.6899 41.7795 32.8724 41.6736 33.049C41.5677 33.1843 41.4146 33.2726 41.2498 33.3079C41.1556 33.3079 41.0085 33.1372 40.9379 33.0195C40.3493 32.0307 39.7784 31.036 39.2074 30.0413C38.8778 29.4704 38.5423 28.8936 38.2069 28.3226C38.1245 28.1696 37.9891 28.0519 37.836 27.9813C37.789 28.1343 37.7595 28.2873 37.7419 28.4404C37.7419 30.6829 37.7478 32.9195 37.7654 35.1502C37.7654 35.4798 37.6595 35.727 37.3122 35.727C36.965 35.727 36.9414 35.4151 36.9414 35.1443C36.9414 32.2426 36.9414 29.3468 36.965 26.4451C36.965 26.3509 36.9944 26.2626 37.0415 26.1802C37.0886 26.0978 37.1474 26.0272 37.2239 25.9742C37.2828 25.9448 37.3416 25.9271 37.4064 25.9271C37.4711 25.9271 37.53 25.9271 37.5947 25.9507C37.6536 25.9742 37.7066 26.0036 37.7536 26.0448C37.8007 26.086 37.836 26.139 37.8655 26.1979C38.9073 27.9989 39.9608 29.7882 41.0026 31.5834C41.1792 31.8895 41.3734 31.8953 41.5853 31.554C41.8737 31.0949 42.1445 30.6181 42.4152 30.1472L44.4694 26.5981C44.54 26.4333 44.64 26.2862 44.7754 26.1684C44.9579 26.0448 45.1757 25.9801 45.3934 25.986C45.4817 25.986 45.6053 26.2979 45.6053 26.4686V34.9913C45.6053 35.1384 45.6465 35.315 45.5818 35.4209C45.5406 35.4916 45.4876 35.5504 45.4229 35.5975C45.3581 35.6446 45.2875 35.6799 45.2051 35.6917C45.1286 35.674 45.0521 35.6387 44.9932 35.5857C44.9343 35.5328 44.8873 35.468 44.8578 35.3915C44.8284 35.1737 44.8284 34.9501 44.8578 34.7323V28.3285C44.8461 28.1814 44.8166 28.0342 44.7754 27.893L44.6518 27.8753L44.6577 27.8812Z" fill="white"/>
<path d="M29.531 35.9033C28.5245 35.8915 27.5474 35.5914 26.7175 35.0322C25.8876 34.473 25.2402 33.6843 24.8635 32.7662C24.4868 31.848 24.3926 30.8356 24.5928 29.8645C24.7929 28.8933 25.2873 27.9987 25.9995 27.3041C26.7117 26.6037 27.624 26.1329 28.6069 25.9445C29.5957 25.7562 30.6139 25.8621 31.538 26.2447C32.4621 26.6273 33.2567 27.2747 33.8099 28.0987C34.3632 28.9286 34.6634 29.8998 34.6575 30.8886C34.6575 31.5537 34.5221 32.207 34.2631 32.8191C34.0042 33.4313 33.6275 33.9845 33.1448 34.4554C32.6681 34.9204 32.1031 35.2912 31.4792 35.5384C30.8553 35.7856 30.1902 35.9092 29.5192 35.9033H29.531ZM25.3344 30.8474C25.3167 31.4065 25.4109 31.9657 25.6169 32.4895C25.8229 33.0134 26.1348 33.4901 26.5292 33.8904C26.9235 34.2906 27.4003 34.6084 27.9241 34.8262C28.448 35.0381 29.013 35.1499 29.578 35.144C30.6728 35.0793 31.7028 34.6025 32.4503 33.8138C33.2037 33.0251 33.6157 31.9775 33.6157 30.8945C33.6157 29.8115 33.1919 28.7697 32.4385 27.981C31.6852 27.1923 30.6551 26.7214 29.5604 26.6626C27.2708 26.6567 25.2108 28.5872 25.3226 30.8533H25.3344V30.8474Z" fill="white"/>
<path d="M8.28331 19.6817V15.3557C8.28331 14.9672 8.40102 14.7847 8.81892 14.8083C9.63705 14.7906 10.4493 14.9142 11.2262 15.1791C12.3327 15.6382 13.2333 16.4799 13.7453 17.557C14.0279 18.1573 14.1868 18.8048 14.2103 19.4699C14.2339 20.1291 14.1279 20.7883 13.8866 21.4122C13.6512 22.0302 13.2862 22.5952 12.8272 23.0779C12.3622 23.5546 11.8089 23.9372 11.1968 24.202C10.4081 24.4728 9.57819 24.5846 8.7424 24.5434C8.3716 24.5434 8.25977 24.3727 8.25977 24.0255V19.6994H8.27742L8.28331 19.6817ZM9.08966 19.6464V23.2662C9.08966 23.5487 9.18384 23.7076 9.49579 23.7194C10.2492 23.7547 10.9849 23.5369 11.6029 23.1132C12.2033 22.7247 12.6859 22.1891 13.0096 21.5534C13.3274 20.9178 13.4746 20.2115 13.4275 19.5052C13.4157 18.5105 13.0273 17.5629 12.3327 16.8448C11.6382 16.1267 10.6965 15.697 9.6959 15.6382C9.18384 15.6382 9.11909 15.6735 9.11909 16.1679C9.09555 17.3274 9.09555 18.4928 9.09555 19.6523L9.08966 19.6464Z" fill="white"/>
<path d="M33.2804 19.6939V15.4973C33.2804 14.95 33.3863 14.8146 33.9455 14.8087H36.8472C37.1768 14.8087 37.5064 14.791 37.8301 14.7852C38.0949 14.7852 38.3834 14.7852 38.3775 15.156C38.3716 15.5268 38.1067 15.5739 37.8065 15.568L34.9048 15.5444H34.7283C34.2221 15.5444 34.122 15.6504 34.122 16.1389V18.7051C34.122 19.2525 34.2103 19.3525 34.7695 19.3525H37.7536C38.0302 19.3525 38.3657 19.3172 38.3716 19.6763C38.3716 20.0353 38.0479 20.0647 37.7418 20.0471H34.7577C34.1985 20.0471 34.122 20.1354 34.122 20.6945V23.2077C34.122 23.6727 34.228 23.814 34.7283 23.814H37.7124C37.8301 23.814 37.9831 23.7728 38.0596 23.814C38.2009 23.9376 38.3245 24.073 38.4304 24.2201C38.2892 24.3261 38.1479 24.5203 38.0067 24.5203C36.6058 24.5438 35.205 24.5203 33.8101 24.5203C33.4393 24.5203 33.2686 24.3555 33.2804 23.9317C33.3098 22.5191 33.2804 21.1065 33.2804 19.6939Z" fill="white"/>
<path d="M21.8793 18.5111V15.3328C21.8793 15.0738 21.8793 14.803 22.2501 14.8089C22.6209 14.8148 22.7033 15.0032 22.7033 15.3269V21.6894C22.7033 22.8902 21.4732 24.3793 20.1724 24.5735C18.6774 24.7913 17.4296 24.3969 16.6291 23.0962C16.3231 22.5605 16.1524 21.9543 16.1406 21.3422C16.0818 19.3587 16.1171 17.3634 16.1171 15.3799C16.1171 15.2916 16.0877 15.168 16.1171 15.1268C16.2407 14.9855 16.3996 14.8854 16.5821 14.8266C16.6703 14.8266 16.8705 15.0267 16.8822 15.1503C16.8999 15.5329 16.8999 15.9155 16.8822 16.298V21.3363C16.8764 21.9896 17.1294 22.6253 17.5885 23.0962C18.0476 23.5729 18.6715 23.8495 19.3366 23.8731C19.6603 23.8849 19.9841 23.8378 20.2901 23.7259C20.5962 23.6141 20.8728 23.4434 21.1141 23.2256C21.3496 23.0079 21.5438 22.743 21.6733 22.4487C21.8087 22.1544 21.8793 21.8366 21.8852 21.5188V18.5111H21.8793Z" fill="white"/>
<path d="M27.9885 22.6075C28.0709 22.4781 28.1415 22.3486 28.2063 22.2132C28.5771 21.2126 28.9538 20.2002 29.3246 19.1997C29.6424 18.3462 29.9661 17.4928 30.284 16.6452C30.4723 16.1508 30.6548 15.6623 30.8314 15.1679C30.8431 15.1031 30.8667 15.0384 30.9079 14.9854C30.9491 14.9324 30.9962 14.8854 31.055 14.8559C31.1139 14.8265 31.1786 14.8088 31.2493 14.8088C31.314 14.8088 31.3846 14.8206 31.4435 14.85C31.7613 14.9501 31.7025 15.2208 31.6201 15.4386C31.0962 16.8571 30.5724 18.2697 30.0368 19.6823C29.5718 20.9124 29.1009 22.1484 28.6301 23.3727C28.4947 23.7435 28.3711 24.0908 28.2063 24.4321C28.1592 24.5263 28.0121 24.5793 27.912 24.6499C27.8414 24.5616 27.7825 24.4675 27.7295 24.3674C27.3587 23.3609 27.0174 22.3486 26.6524 21.3421C26.1051 19.8059 25.5518 18.2756 24.9926 16.7394C24.8278 16.2803 24.6218 15.833 24.4806 15.3798C24.4511 15.2267 24.4394 15.0678 24.457 14.9089C24.663 14.8912 24.8749 14.9089 25.0809 14.9442C25.1869 14.9795 25.2693 15.1679 25.3164 15.315C25.8932 16.9218 26.4347 18.5287 27.0232 20.1355C27.294 20.8948 27.553 21.6599 27.8237 22.4133C27.8414 22.4486 27.8885 22.4839 27.9944 22.6075H27.9885Z" fill="white"/>
<path d="M43.2275 20.0713V24.0442C43.2275 24.368 43.0745 24.5151 42.7802 24.5151C42.4859 24.5151 42.3387 24.3444 42.3446 24.0325C42.3446 21.4486 42.3623 18.8706 42.374 16.2632C42.374 15.604 42.2858 15.5275 41.6265 15.5451C41.2263 15.5451 40.8261 15.5687 40.42 15.5451C40.161 15.5451 39.8667 15.4215 39.9314 15.1096C39.955 14.986 40.261 14.8271 40.4376 14.8271C42.0032 14.8035 43.563 14.8094 45.1286 14.8271C45.3523 14.8271 45.6054 14.8271 45.6112 15.1508C45.6171 15.4745 45.4052 15.5628 45.1404 15.5628H43.8926C43.3217 15.5628 43.2039 15.657 43.2039 16.2102V20.0949L43.2334 20.0713H43.2275Z" fill="white"/>
</svg>
