<svg width="288" height="196" viewBox="0 0 288 196" fill="none" xmlns="http://www.w3.org/2000/svg">
<path d="M0.820066 137.595V83.9818C0.756279 83.1207 0.94764 82.2277 1.39415 81.4941C1.84066 80.7287 2.51042 80.1227 3.30776 79.74C11.632 75.1473 19.8605 70.5227 28.1528 65.8982C36.4451 61.2736 44.7374 56.7128 52.9979 52.0883C58.5154 48.9627 63.9373 45.6777 69.4549 42.584C76.2482 38.7887 83.1372 35.1209 89.9305 31.3575C95.3206 28.3276 100.647 25.2339 106.101 22.1722C112.798 18.3768 119.528 14.6453 126.321 10.8181C131.775 7.7244 137.197 4.59883 142.491 1.37759C142.969 0.994866 143.575 0.739718 144.213 0.707825C144.851 0.707825 145.457 0.867292 145.999 1.21812C152.442 5.01345 158.916 8.74499 165.423 12.4446C172.248 16.4313 179.073 20.2904 185.898 24.1496C192.723 28.0087 199.389 31.6126 206.119 35.3761C212.848 39.1395 220.088 43.3814 227.073 47.2405C232.59 50.3341 238.172 53.3321 243.689 56.4258C250.419 60.1892 257.084 64.0484 263.91 67.8118C270.735 71.5752 277.911 75.6576 284.991 79.4529C285.948 79.8675 286.745 80.5692 287.288 81.4622C287.83 82.3552 288.053 83.3758 287.989 84.3964V142.092C287.989 145.696 287.575 145.983 283.939 145.887C278.039 145.76 272.138 145.887 266.238 145.76C264.037 145.76 263.08 146.525 263.144 148.885C263.272 153.924 263.144 158.868 263.144 163.971C263.144 165.98 264.324 166.203 265.76 166.235H282.727C283.141 166.235 283.62 166.044 283.907 166.235C284.768 166.682 286.139 167.16 286.299 167.894C286.618 169.361 285.502 170.222 283.971 170.254H266.302C264.292 170.254 263.176 171.051 263.24 173.252C263.24 178.036 263.336 182.82 263.24 187.636C263.24 189.9 264.197 190.857 266.365 190.857H283.078C284.545 190.857 286.299 190.57 286.331 192.611C286.331 194.652 284.736 194.62 283.141 194.62H263.973C259.126 194.62 258.807 194.174 258.839 189.422V145.122C258.839 141.9 259.158 141.518 262.57 141.518H280.239C283.907 141.518 284.13 141.135 284.13 137.531V87.0117C284.194 86.023 283.971 85.0343 283.492 84.1732C282.982 83.312 282.248 82.6104 281.355 82.1639C271.245 76.4549 260.975 70.8417 250.801 65.1008C243.849 61.2098 237.023 57.1912 230.071 53.3002C224.617 50.2066 219.099 47.3043 213.614 44.2106C209.276 41.7867 205.002 39.2033 200.665 36.7794C195.275 33.7495 189.853 30.7834 184.495 27.8173C172.567 21.1516 160.638 14.5496 148.806 7.7244C147.53 6.83138 146.031 6.35298 144.468 6.35298C142.906 6.35298 141.407 6.83138 140.131 7.7244C132.253 12.3809 124.184 16.6865 116.211 21.1516C108.237 25.6167 99.8813 30.4007 91.6847 34.9934C84.7319 38.8844 77.7472 42.6159 70.8263 46.5069C65.7234 49.3773 60.7161 52.3434 55.5812 55.2138C46.2045 60.5401 36.8278 65.8344 27.4512 71.0968L8.05989 81.8768C7.0393 82.3233 6.21007 83.0888 5.63599 84.0456C5.0619 85.0024 4.80675 86.0868 4.90244 87.203C5.03001 120.245 4.90244 153.286 4.90244 186.328C4.90244 190.538 5.0938 190.857 9.39942 190.857H86.4542C88.6867 190.857 89.5478 190.028 89.5478 187.955V168.563C89.5478 160.271 89.5159 151.979 89.4203 143.655C89.4203 142.347 89.6116 141.167 91.3339 141.263C93.0242 141.358 93.9172 141.996 93.9172 143.75V163.397C93.9172 166.809 94.2681 167.224 97.7445 167.16H109.864C113.914 167.16 114.329 166.841 114.265 162.854C114.265 156.571 114.265 150.257 114.138 143.942C114.138 142.411 114.616 141.39 116.147 141.358C117.71 141.326 118.762 142.187 118.762 144.037V191.208C118.762 192.898 118.188 194.397 116.306 194.365C114.393 194.365 114.074 192.866 114.074 191.272C114.074 185.531 114.074 179.79 114.202 174.049C114.202 171.689 113.308 170.955 111.076 171.019C106.132 171.115 101.221 171.019 96.2774 171.019C94.5232 171.019 93.7897 171.657 93.8216 173.411C93.8216 179.216 93.8216 185.052 93.9491 190.889C93.9491 194.014 92.5777 195.258 89.4521 194.876C88.3997 194.716 87.3791 194.62 86.3266 194.62H9.11238C7.48581 194.62 5.89113 194.716 4.29646 195.003C2.28717 195.418 1.23468 194.525 1.10711 192.579V137.69H0.820066V137.595Z" fill="#2F2F2F"/>
<path d="M240.086 151.787L235.079 160.303C231.857 165.82 228.604 171.306 225.415 176.824C225 177.844 224.49 178.833 223.916 179.79C223.342 180.523 222.513 181.002 221.62 181.193C221.109 181.193 220.312 180.268 219.929 179.63C216.74 174.272 213.646 168.882 210.552 163.492C208.766 160.398 206.948 157.273 205.131 154.179C204.684 153.35 203.95 152.712 203.121 152.329C202.866 153.159 202.707 153.988 202.611 154.817C202.611 166.968 202.643 179.088 202.739 191.176C202.739 192.962 202.164 194.301 200.283 194.301C198.401 194.301 198.273 192.611 198.273 191.144C198.273 175.42 198.273 159.729 198.401 144.005C198.401 143.495 198.56 143.016 198.816 142.57C199.071 142.123 199.39 141.741 199.804 141.454C200.123 141.294 200.442 141.198 200.793 141.198C201.144 141.198 201.463 141.198 201.814 141.326C202.133 141.454 202.42 141.613 202.675 141.836C202.93 142.06 203.121 142.347 203.281 142.666C208.926 152.425 214.635 162.121 220.28 171.848C221.237 173.507 222.289 173.539 223.437 171.689C225 169.201 226.467 166.618 227.934 164.066L239.065 144.834C239.448 143.941 239.99 143.144 240.724 142.506C241.712 141.836 242.892 141.486 244.073 141.517C244.551 141.517 245.221 143.208 245.221 144.133V190.314C245.221 191.112 245.444 192.069 245.093 192.643C244.87 193.025 244.583 193.344 244.232 193.6C243.881 193.855 243.498 194.046 243.052 194.11C242.637 194.014 242.223 193.823 241.904 193.536C241.585 193.249 241.33 192.898 241.17 192.483C241.011 191.303 241.011 190.091 241.17 188.911V154.211C241.106 153.414 240.947 152.616 240.724 151.851L240.054 151.755L240.086 151.787Z" fill="#2F2F2F"/>
<path d="M158.118 195.26C152.664 195.196 147.37 193.569 142.873 190.54C138.376 187.51 134.868 183.236 132.826 178.261C130.785 173.285 130.275 167.799 131.359 162.537C132.444 157.275 135.123 152.427 138.982 148.663C142.841 144.868 147.784 142.317 153.111 141.296C158.469 140.275 163.986 140.849 168.994 142.922C174.001 144.996 178.307 148.504 181.305 152.969C184.303 157.466 185.929 162.728 185.897 168.086C185.897 171.69 185.164 175.231 183.76 178.548C182.357 181.864 180.316 184.862 177.701 187.414C175.117 189.934 172.055 191.943 168.675 193.282C165.294 194.622 161.69 195.292 158.054 195.26H158.118ZM135.378 167.863C135.282 170.893 135.792 173.923 136.909 176.762C138.025 179.6 139.715 182.183 141.852 184.352C143.989 186.521 146.572 188.243 149.411 189.423C152.25 190.571 155.311 191.177 158.373 191.145C164.305 190.795 169.887 188.211 173.937 183.938C178.019 179.664 180.252 173.987 180.252 168.118C180.252 162.25 177.956 156.605 173.873 152.331C169.791 148.057 164.21 145.506 158.277 145.187C145.871 145.155 134.708 155.616 135.314 167.895H135.378V167.863Z" fill="#2F2F2F"/>
<path d="M42.983 107.359V83.9169C42.983 81.8119 43.6209 80.8232 45.8854 80.9508C50.3186 80.8551 54.7199 81.5248 58.9298 82.96C64.9258 85.4477 69.8055 90.0085 72.5802 95.845C74.1111 99.0982 74.9722 102.606 75.0998 106.21C75.2274 109.782 74.6533 113.355 73.3457 116.735C72.0699 120.084 70.0925 123.146 67.6048 125.761C65.0852 128.345 62.0873 130.418 58.7703 131.853C54.4966 133.32 49.9996 133.926 45.4707 133.703C43.4614 133.703 42.8555 132.778 42.8555 130.896V107.454H42.9511L42.983 107.359ZM47.3525 107.167V126.782C47.3525 128.313 47.8627 129.174 49.5531 129.238C53.6355 129.429 57.6222 128.249 60.971 125.953C64.2241 123.848 66.8394 120.945 68.5935 117.501C70.3158 114.056 71.1131 110.229 70.858 106.402C70.7942 101.012 68.6892 95.8769 64.9258 91.9859C61.1623 88.0949 56.0594 85.7667 50.6375 85.4477C47.8627 85.4477 47.5119 85.6391 47.5119 88.3182C47.3843 94.6012 47.3843 100.916 47.3843 107.199L47.3525 107.167Z" fill="#2F2F2F"/>
<path d="M178.436 107.424V84.6836C178.436 81.7175 179.01 80.9839 182.04 80.952H197.763C199.549 80.952 201.335 80.8564 203.089 80.8245C204.525 80.8245 206.087 80.8245 206.055 82.8338C206.024 84.843 204.588 85.0982 202.962 85.0663L187.238 84.9387H186.282C183.539 84.9387 182.996 85.5128 182.996 88.16V102.066C182.996 105.032 183.475 105.574 186.505 105.574H202.675C204.174 105.574 205.992 105.382 206.024 107.328C206.024 109.273 204.269 109.433 202.611 109.337H186.441C183.411 109.337 182.996 109.816 182.996 112.846V126.464C182.996 128.984 183.571 129.749 186.282 129.749H202.452C203.089 129.749 203.919 129.526 204.333 129.749C205.099 130.419 205.768 131.152 206.343 131.95C205.577 132.524 204.812 133.576 204.046 133.576C196.456 133.704 188.865 133.576 181.306 133.576C179.297 133.576 178.372 132.683 178.436 130.387C178.595 122.733 178.436 115.078 178.436 107.424Z" fill="#2F2F2F"/>
<path d="M116.657 101.014V83.7913C116.657 82.388 116.657 80.9209 118.666 80.9528C120.676 80.9847 121.122 82.0053 121.122 83.7594V118.236C121.122 124.743 114.456 132.812 107.408 133.864C99.3068 135.044 92.5454 132.907 88.2079 125.859C86.5494 122.957 85.6245 119.672 85.5608 116.355C85.2418 105.606 85.4332 94.7946 85.4332 84.0465C85.4332 83.5681 85.2737 82.8983 85.4332 82.675C86.1029 81.9096 86.9641 81.3674 87.9528 81.0485C88.4312 81.0485 89.5155 82.1328 89.5793 82.8026C89.675 84.8757 89.675 86.9488 89.5793 89.0218V116.323C89.5474 119.863 90.9189 123.307 93.4066 125.859C95.8943 128.442 99.275 129.941 102.879 130.069C104.633 130.133 106.387 129.877 108.046 129.271C109.704 128.665 111.203 127.741 112.511 126.561C113.787 125.38 114.839 123.945 115.541 122.351C116.274 120.756 116.657 119.034 116.689 117.311V101.014H116.657Z" fill="#2F2F2F"/>
<path d="M149.762 123.211C150.208 122.51 150.591 121.808 150.942 121.074C152.951 115.652 154.992 110.167 157.001 104.745C158.724 100.12 160.478 95.4957 162.2 90.9031C163.221 88.224 164.209 85.5768 165.166 82.8978C165.23 82.5469 165.358 82.1961 165.581 81.9091C165.804 81.622 166.059 81.3669 166.378 81.2074C166.697 81.048 167.048 80.9523 167.431 80.9523C167.781 80.9523 168.164 81.0161 168.483 81.1755C170.205 81.7177 169.886 83.1848 169.44 84.3649C166.601 92.0512 163.763 99.7057 160.861 107.36C158.341 114.026 155.79 120.723 153.238 127.357C152.504 129.367 151.835 131.248 150.942 133.098C150.687 133.608 149.889 133.896 149.347 134.278C148.964 133.8 148.645 133.29 148.358 132.747C146.349 127.294 144.499 121.808 142.522 116.354C139.556 108.03 136.558 99.7376 133.528 91.4133C132.635 88.9257 131.519 86.5017 130.753 84.0459C130.594 83.2167 130.53 82.3556 130.626 81.4945C131.742 81.3988 132.89 81.4945 134.006 81.6858C134.58 81.8772 135.027 82.8978 135.282 83.6951C138.408 92.402 141.342 101.109 144.531 109.816C145.998 113.93 147.402 118.076 148.869 122.159C148.964 122.35 149.219 122.541 149.794 123.211H149.762Z" fill="#2F2F2F"/>
<path d="M232.336 109.466V130.994C232.336 132.748 231.507 133.546 229.912 133.546C228.318 133.546 227.52 132.621 227.552 130.93C227.552 116.929 227.648 102.96 227.712 88.8309C227.712 85.2588 227.233 84.8442 223.661 84.9399C221.492 84.9399 219.324 85.0674 217.123 84.9399C215.72 84.9399 214.125 84.2701 214.476 82.5798C214.603 81.91 216.262 81.0489 217.219 81.0489C225.702 80.9213 234.154 80.9532 242.638 81.0489C243.85 81.0489 245.221 81.0489 245.253 82.803C245.285 84.5571 244.137 85.0356 242.702 85.0356H235.94C232.847 85.0356 232.209 85.5459 232.209 88.5438V109.594L232.368 109.466H232.336Z" fill="#2F2F2F"/>
</svg>
