<svg width="24" height="25" viewBox="0 0 24 25" fill="none" xmlns="http://www.w3.org/2000/svg">
<path d="M17.8887 11.0591C19.2837 10.8631 20.3577 9.66708 20.3607 8.21808C20.3607 6.79008 19.3197 5.60608 17.9547 5.38208" stroke="white" stroke-width="1.5" stroke-linecap="round" stroke-linejoin="round"/>
<path d="M19.7285 14.4126C21.0795 14.6146 22.0225 15.0876 22.0225 16.0626C22.0225 16.7336 21.5785 17.1696 20.8605 17.4436" stroke="white" stroke-width="1.5" stroke-linecap="round" stroke-linejoin="round"/>
<path fill-rule="evenodd" clip-rule="evenodd" d="M11.8867 14.8262C8.67273 14.8262 5.92773 15.3132 5.92773 17.2582C5.92773 19.2022 8.65573 19.7032 11.8867 19.7032C15.1007 19.7032 17.8447 19.2212 17.8447 17.2752C17.8447 15.3292 15.1177 14.8262 11.8867 14.8262Z" stroke="white" stroke-width="1.5" stroke-linecap="round" stroke-linejoin="round"/>
<path fill-rule="evenodd" clip-rule="evenodd" d="M11.8874 12.0502C13.9964 12.0502 15.7064 10.3412 15.7064 8.23123C15.7064 6.12223 13.9964 4.41223 11.8874 4.41223C9.77839 4.41223 8.06839 6.12223 8.06839 8.23123C8.06039 10.3332 9.75739 12.0432 11.8594 12.0502H11.8874Z" stroke="white" stroke-width="1.5" stroke-linecap="round" stroke-linejoin="round"/>
</svg>
