<svg width="24" height="25" viewBox="0 0 24 25" fill="none" xmlns="http://www.w3.org/2000/svg">
<path fill-rule="evenodd" clip-rule="evenodd" d="M14.2124 7.92477C14.2124 10.5685 12.0489 12.6872 9.34933 12.6872C6.6507 12.6872 4.48631 10.5685 4.48631 7.92477C4.48631 5.281 6.6507 3.16235 9.34933 3.16235C12.0489 3.16235 14.2124 5.281 14.2124 7.92477ZM2 18.0797C2 15.6324 5.38553 15.0201 9.34933 15.0201C13.3347 15.0201 16.6987 15.6535 16.6987 18.1027C16.6987 20.55 13.3131 21.1624 9.34933 21.1624C5.364 21.1624 2 20.529 2 18.0797ZM16.1728 8.01111C16.1728 9.35743 15.7599 10.6137 15.0358 11.6572C14.9605 11.7645 15.027 11.9092 15.1581 11.9322C15.3401 11.9619 15.527 11.9801 15.7178 11.9839C17.616 12.0328 19.3196 10.836 19.7902 9.03355C20.4879 6.35912 18.4409 3.95779 15.8333 3.95779C15.5505 3.95779 15.2794 3.98654 15.0153 4.03924C14.9791 4.04691 14.9399 4.06416 14.9203 4.09482C14.8949 4.13411 14.9135 4.1849 14.9389 4.21843C15.7227 5.29453 16.1728 6.60443 16.1728 8.01111ZM19.3166 13.8646C20.5926 14.109 21.4311 14.6063 21.7785 15.3317C22.073 15.9258 22.073 16.6157 21.7785 17.2098C21.2472 18.3329 19.5329 18.6941 18.8665 18.7871C18.7286 18.8062 18.618 18.6913 18.6327 18.5552C18.9732 15.4429 16.2657 13.9672 15.5651 13.628C15.5358 13.6117 15.5289 13.5887 15.5319 13.5733C15.5338 13.5638 15.5465 13.5484 15.5691 13.5456C17.0847 13.5168 18.7149 13.7209 19.3166 13.8646Z" fill="url(#paint0_linear_337_7807)"/>
<defs>
<linearGradient id="paint0_linear_337_7807" x1="11.9997" y1="3.16235" x2="11.9997" y2="21.1624" gradientUnits="userSpaceOnUse">
<stop stop-color="#74BFB6"/>
<stop offset="0.0001" stop-color="#74BFB6"/>
<stop offset="1" stop-color="#3A5A40"/>
</linearGradient>
</defs>
</svg>
