<svg width="276" height="187" viewBox="0 0 276 187" fill="none" xmlns="http://www.w3.org/2000/svg">
<path d="M0.0114795 131.387V79.928C-0.0497445 79.1015 0.133928 78.2443 0.562496 77.5403C0.991064 76.8056 1.63392 76.224 2.39922 75.8566C10.389 71.4485 18.2869 67.0097 26.246 62.571C34.2051 58.1322 42.1642 53.7547 50.0928 49.316C55.3886 46.316 60.5927 43.163 65.8886 40.1936C72.4089 36.5508 79.0211 33.0304 85.5415 29.4182C90.7149 26.51 95.8271 23.5406 101.062 20.6019C107.49 16.9591 113.949 13.3775 120.47 9.70401C125.704 6.73465 130.908 3.73467 135.99 0.642853C136.449 0.275508 137.031 0.030612 137.643 0C138.255 0 138.837 0.15306 139.357 0.489792C145.541 4.13262 151.755 7.71423 158 11.2652C164.551 15.0917 171.102 18.7958 177.653 22.4998C184.204 26.2039 190.602 29.6631 197.061 33.2753C203.52 36.8875 210.469 40.9589 217.173 44.6629C222.469 47.6323 227.826 50.5098 233.122 53.4792C239.581 57.0914 245.979 60.7955 252.53 64.4077C259.081 68.0199 265.969 71.9383 272.765 75.5811C273.683 75.9791 274.448 76.6525 274.969 77.5097C275.489 78.3668 275.703 79.3464 275.642 80.326V135.703C275.642 139.162 275.244 139.438 271.754 139.346C266.091 139.223 260.428 139.346 254.765 139.223C252.653 139.223 251.734 139.958 251.795 142.223C251.918 147.06 251.795 151.805 251.795 156.703C251.795 158.632 252.928 158.846 254.306 158.876H270.591C270.989 158.876 271.448 158.693 271.724 158.876C272.55 159.305 273.867 159.764 274.02 160.468C274.326 161.876 273.254 162.703 271.785 162.734H254.826C252.897 162.734 251.826 163.499 251.887 165.611C251.887 170.203 251.979 174.795 251.887 179.417C251.887 181.591 252.806 182.509 254.887 182.509H270.928C272.336 182.509 274.02 182.233 274.05 184.193C274.05 186.152 272.52 186.121 270.989 186.121H252.591C247.938 186.121 247.632 185.693 247.663 181.131V138.611C247.663 135.519 247.969 135.152 251.244 135.152H268.203C271.724 135.152 271.938 134.785 271.938 131.326V82.8361C271.999 81.8872 271.785 80.9382 271.326 80.1117C270.836 79.2851 270.132 78.6117 269.275 78.1831C259.571 72.7036 249.714 67.3158 239.949 61.8057C233.275 58.071 226.724 54.2139 220.051 50.4792C214.816 47.5099 209.52 44.7242 204.255 41.7548C200.092 39.4283 195.99 36.9487 191.826 34.6222C186.653 31.7141 181.449 28.8671 176.306 26.0202C164.857 19.6223 153.408 13.2856 142.051 6.73465C140.827 5.87751 139.388 5.41833 137.888 5.41833C136.388 5.41833 134.949 5.87751 133.725 6.73465C126.164 11.204 118.419 15.3366 110.766 19.6223C103.113 23.908 95.0924 28.4998 87.2251 32.9079C80.5517 36.6426 73.8477 40.2242 67.2049 43.9589C62.3069 46.714 57.5009 49.5609 52.5723 52.316C43.5724 57.4282 34.5725 62.5098 25.5725 67.5607L6.96041 77.9076C5.98082 78.3362 5.18491 79.0709 4.63389 79.9892C4.08288 80.9076 3.83798 81.9484 3.92982 83.0198C4.05227 114.734 3.92982 146.448 3.92982 178.162C3.92982 182.203 4.11349 182.509 8.24611 182.509H82.2048C84.3476 182.509 85.1741 181.713 85.1741 179.723V161.111C85.1741 153.152 85.1435 145.193 85.0517 137.203C85.0517 135.948 85.2354 134.815 86.8884 134.907C88.5108 134.999 89.368 135.611 89.368 137.295V156.152C89.368 159.427 89.7047 159.825 93.0414 159.764H104.674C108.562 159.764 108.96 159.458 108.898 155.632C108.898 149.601 108.898 143.54 108.776 137.479C108.776 136.009 109.235 135.03 110.705 134.999C112.205 134.968 113.215 135.795 113.215 137.57V182.846C113.215 184.468 112.664 185.907 110.858 185.876C109.021 185.876 108.715 184.437 108.715 182.907C108.715 177.397 108.715 171.887 108.837 166.376C108.837 164.111 107.98 163.407 105.837 163.468C101.092 163.56 96.3781 163.468 91.6333 163.468C89.9496 163.468 89.2455 164.08 89.2761 165.764C89.2761 171.336 89.2761 176.938 89.3986 182.54C89.3986 185.539 88.0823 186.733 85.0823 186.366C84.0721 186.213 83.0925 186.121 82.0823 186.121H7.97061C6.40939 186.121 4.87879 186.213 3.34819 186.488C1.41963 186.886 0.409436 186.029 0.286988 184.162V131.479H0.0114795V131.387Z" fill="white"/>
<path d="M229.663 145.007L224.857 153.181C221.765 158.477 218.643 163.742 215.582 169.038C215.184 170.017 214.694 170.966 214.143 171.885C213.592 172.589 212.796 173.048 211.939 173.232C211.449 173.232 210.684 172.344 210.316 171.732C207.255 166.589 204.286 161.415 201.316 156.242C199.602 153.273 197.857 150.273 196.112 147.303C195.684 146.507 194.98 145.895 194.184 145.528C193.939 146.324 193.786 147.12 193.694 147.916C193.694 159.579 193.725 171.211 193.816 182.813C193.816 184.528 193.265 185.813 191.459 185.813C189.653 185.813 189.531 184.191 189.531 182.783C189.531 167.691 189.531 152.63 189.653 137.538C189.653 137.048 189.806 136.589 190.051 136.161C190.296 135.732 190.602 135.365 191 135.089C191.306 134.936 191.612 134.844 191.949 134.844C192.286 134.844 192.592 134.844 192.929 134.967C193.235 135.089 193.51 135.242 193.755 135.456C194 135.671 194.184 135.946 194.337 136.252C199.755 145.62 205.235 154.926 210.653 164.262C211.571 165.854 212.582 165.885 213.684 164.109C215.184 161.722 216.592 159.242 218 156.793L228.684 138.334C229.051 137.477 229.571 136.712 230.275 136.099C231.224 135.456 232.357 135.12 233.49 135.15C233.949 135.15 234.592 136.773 234.592 137.661V181.987C234.592 182.752 234.806 183.67 234.469 184.221C234.255 184.589 233.979 184.895 233.643 185.14C233.306 185.385 232.939 185.568 232.51 185.63C232.112 185.538 231.714 185.354 231.408 185.079C231.102 184.803 230.857 184.466 230.704 184.068C230.551 182.936 230.551 181.772 230.704 180.64V147.334C230.643 146.569 230.49 145.803 230.275 145.069L229.633 144.977L229.663 145.007Z" fill="white"/>
<path d="M150.99 186.735C145.755 186.673 140.673 185.112 136.357 182.204C132.041 179.296 128.674 175.194 126.714 170.418C124.755 165.643 124.265 160.378 125.306 155.327C126.347 150.276 128.918 145.623 132.622 142.01C136.327 138.368 141.071 135.919 146.184 134.939C151.326 133.959 156.622 134.511 161.428 136.5C166.234 138.49 170.367 141.857 173.245 146.143C176.122 150.459 177.683 155.51 177.653 160.653C177.653 164.112 176.949 167.51 175.602 170.694C174.255 173.878 172.296 176.755 169.785 179.204C167.306 181.622 164.367 183.551 161.122 184.837C157.877 186.122 154.418 186.765 150.928 186.735H150.99ZM129.163 160.439C129.071 163.347 129.561 166.255 130.633 168.98C131.704 171.704 133.327 174.184 135.378 176.265C137.429 178.347 139.908 180 142.633 181.133C145.357 182.235 148.296 182.816 151.235 182.786C156.928 182.449 162.286 179.969 166.173 175.867C170.092 171.765 172.234 166.316 172.234 160.684C172.234 155.051 170.03 149.633 166.112 145.531C162.194 141.429 156.837 138.98 151.143 138.674C139.235 138.643 128.52 148.684 129.102 160.47H129.163V160.439Z" fill="white"/>
<path d="M40.4808 102.367V79.8667C40.4808 77.8463 41.0931 76.8973 43.2665 77.0198C47.5216 76.9279 51.7461 77.5708 55.7869 78.9483C61.5419 81.3361 66.2256 85.7136 68.8888 91.3156C70.3582 94.438 71.1847 97.8053 71.3072 101.264C71.4296 104.693 70.8786 108.122 69.6235 111.366C68.399 114.581 66.5011 117.519 64.1133 120.03C61.695 122.509 58.8174 124.499 55.6338 125.877C51.5318 127.285 47.2155 127.866 42.8686 127.652C40.94 127.652 40.3584 126.764 40.3584 124.958V102.458H40.4502L40.4808 102.367ZM44.6747 102.183V121.009C44.6747 122.479 45.1645 123.305 46.7869 123.366C50.7053 123.55 54.5318 122.417 57.746 120.213C60.8685 118.193 63.3786 115.407 65.0623 112.101C66.7153 108.795 67.4806 105.122 67.2358 101.448C67.1745 96.2747 65.1541 91.3462 61.5419 87.6115C57.9297 83.8769 53.0318 81.6422 47.8277 81.3361C45.1645 81.3361 44.8278 81.5197 44.8278 84.0911C44.7053 90.1217 44.7053 96.1829 44.7053 102.213L44.6747 102.183Z" fill="white"/>
<path d="M170.49 102.428V80.602C170.49 77.7551 171.041 77.051 173.949 77.0204H189.041C190.755 77.0204 192.469 76.9286 194.153 76.8979C195.53 76.8979 197.03 76.8979 197 78.8265C196.969 80.7551 195.592 81 194.03 80.9693L178.939 80.8469H178.02C175.388 80.8469 174.867 81.3979 174.867 83.9387V97.2856C174.867 100.132 175.326 100.653 178.235 100.653H193.755C195.194 100.653 196.939 100.469 196.969 102.337C196.969 104.204 195.286 104.357 193.694 104.265H178.173C175.265 104.265 174.867 104.724 174.867 107.632V120.704C174.867 123.122 175.418 123.857 178.02 123.857H193.541C194.153 123.857 194.949 123.643 195.347 123.857C196.081 124.5 196.724 125.204 197.275 125.969C196.541 126.52 195.806 127.53 195.071 127.53C187.786 127.653 180.5 127.53 173.245 127.53C171.316 127.53 170.429 126.673 170.49 124.469C170.643 117.122 170.49 109.775 170.49 102.428Z" fill="white"/>
<path d="M111.194 96.2765V79.746C111.194 78.399 111.194 76.9909 113.123 77.0215C115.052 77.0521 115.48 78.0317 115.48 79.7153V112.807C115.48 119.052 109.082 126.797 102.317 127.807C94.5415 128.939 88.0517 126.888 83.8885 120.123C82.2967 117.338 81.4089 114.184 81.3477 111.001C81.0416 100.685 81.2253 90.3071 81.2253 79.9909C81.2253 79.5317 81.0722 78.8888 81.2253 78.6745C81.8681 77.9398 82.6946 77.4194 83.6436 77.1133C84.1028 77.1133 85.1436 78.1541 85.2048 78.797C85.2966 80.7868 85.2966 82.7765 85.2048 84.7663V110.97C85.1742 114.368 86.4905 117.674 88.8783 120.123C91.266 122.603 94.5109 124.042 97.97 124.164C99.6537 124.225 101.337 123.98 102.929 123.399C104.521 122.817 105.96 121.929 107.215 120.797C108.439 119.664 109.45 118.287 110.123 116.756C110.827 115.225 111.194 113.572 111.225 111.919V96.2765H111.194Z" fill="white"/>
<path d="M142.969 117.582C143.398 116.908 143.765 116.235 144.102 115.531C146.031 110.327 147.99 105.062 149.918 99.8576C151.571 95.4188 153.255 90.9801 154.908 86.572C155.888 84.0005 156.837 81.4597 157.755 78.8883C157.816 78.5516 157.939 78.2149 158.153 77.9394C158.367 77.6639 158.612 77.419 158.918 77.2659C159.224 77.1128 159.561 77.021 159.929 77.021C160.265 77.021 160.633 77.0822 160.939 77.2353C162.592 77.7557 162.286 79.1638 161.857 80.2965C159.133 87.674 156.408 95.0209 153.622 102.368C151.204 108.766 148.755 115.194 146.306 121.561C145.602 123.49 144.959 125.296 144.102 127.072C143.857 127.561 143.092 127.837 142.571 128.204C142.204 127.745 141.898 127.255 141.623 126.735C139.694 121.5 137.918 116.235 136.021 111C133.174 103.011 130.296 95.0515 127.388 87.0617C126.531 84.674 125.459 82.3475 124.725 79.9904C124.572 79.1945 124.51 78.3679 124.602 77.5414C125.674 77.4496 126.776 77.5414 127.847 77.7251C128.398 77.9087 128.827 78.8883 129.072 79.6536C132.072 88.0107 134.888 96.3678 137.949 104.725C139.357 108.674 140.704 112.653 142.112 116.572C142.204 116.755 142.449 116.939 143 117.582H142.969Z" fill="white"/>
<path d="M222.224 104.388V125.051C222.224 126.735 221.428 127.5 219.898 127.5C218.367 127.5 217.602 126.612 217.632 124.99C217.632 111.551 217.724 98.143 217.785 84.5818C217.785 81.1533 217.326 80.7553 213.898 80.8472C211.816 80.8472 209.734 80.9696 207.622 80.8472C206.275 80.8472 204.745 80.2043 205.081 78.5819C205.204 77.939 206.796 77.1125 207.714 77.1125C215.857 76.9901 223.969 77.0207 232.112 77.1125C233.275 77.1125 234.591 77.1125 234.622 78.7962C234.653 80.4798 233.551 80.939 232.173 80.939H225.683C222.714 80.939 222.102 81.4288 222.102 84.3063V104.51L222.255 104.388H222.224Z" fill="white"/>
</svg>
