    <svg width="150" height="20" viewBox="0 0 150 20" fill="none" xmlns="http://www.w3.org/2000/svg">
<path d="M1.40772 16.9785V8.94126H4.89819C5.42635 8.94126 5.88179 9.03694 6.26452 9.2283C6.6549 9.41966 6.95726 9.6914 7.17158 10.0435C7.38591 10.388 7.49307 10.7937 7.49307 11.2606C7.49307 11.7275 7.38591 12.137 7.17158 12.4891C6.95726 12.8336 6.6549 13.1053 6.26452 13.3043C5.87414 13.4957 5.41869 13.5914 4.89819 13.5914H2.29182V16.9785H1.40772ZM2.29182 12.8221H4.8293C5.37277 12.8221 5.80525 12.6843 6.12674 12.4088C6.44823 12.1255 6.60897 11.7466 6.60897 11.2721C6.60897 10.7975 6.44823 10.4224 6.12674 10.1468C5.80525 9.87128 5.37277 9.7335 4.8293 9.7335H2.29182V12.8221ZM10.6723 17.0933C10.1288 17.0933 9.63126 16.9632 9.17964 16.703C8.73568 16.435 8.38357 16.0753 8.12332 15.6237C7.86306 15.172 7.73293 14.6668 7.73293 14.1081C7.73293 13.5493 7.86306 13.0441 8.12332 12.5925C8.38357 12.1409 8.73568 11.7849 9.17964 11.5247C9.63126 11.2568 10.1288 11.1228 10.6723 11.1228C11.2234 11.1228 11.7209 11.2568 12.1649 11.5247C12.6089 11.7849 12.961 12.1409 13.2212 12.5925C13.4815 13.0441 13.6116 13.5493 13.6116 14.1081C13.6116 14.6668 13.4815 15.172 13.2212 15.6237C12.961 16.0753 12.6089 16.435 12.1649 16.703C11.7209 16.9632 11.2234 17.0933 10.6723 17.0933ZM10.6723 16.3355C11.0627 16.3355 11.4148 16.236 11.7286 16.037C12.0501 15.838 12.3027 15.5701 12.4864 15.2333C12.6778 14.8965 12.7734 14.5214 12.7734 14.1081C12.7734 13.6871 12.6778 13.312 12.4864 12.9828C12.3027 12.6461 12.0501 12.3781 11.7286 12.1791C11.4148 11.9801 11.0627 11.8806 10.6723 11.8806C10.2819 11.8806 9.92596 11.9801 9.60447 12.1791C9.29063 12.3781 9.03803 12.6461 8.84667 12.9828C8.66296 13.312 8.57111 13.6871 8.57111 14.1081C8.57111 14.5214 8.66296 14.8965 8.84667 15.2333C9.03803 15.5701 9.29063 15.838 9.60447 16.037C9.92596 16.236 10.2819 16.3355 10.6723 16.3355ZM15.7361 16.9785L14.1172 11.2261H14.9553L16.1954 15.8189L17.6306 11.2261H18.3884L19.8121 15.8189L21.0637 11.2261H21.8674L20.237 16.9785H19.4218L17.998 12.3743L16.5628 16.9785H15.7361ZM25.339 17.0819C24.7879 17.0819 24.2865 16.9517 23.8349 16.6915C23.3909 16.4236 23.035 16.0638 22.7671 15.6122C22.5068 15.1606 22.3767 14.6554 22.3767 14.0966C22.3767 13.5455 22.503 13.0479 22.7556 12.604C23.0082 12.1523 23.3488 11.7964 23.7775 11.5361C24.2061 11.2682 24.6846 11.1343 25.2127 11.1343C25.7256 11.1343 26.1848 11.2682 26.5905 11.5361C27.0039 11.7964 27.3292 12.1523 27.5665 12.604C27.8114 13.0479 27.9339 13.5455 27.9339 14.0966V14.3607H23.2149C23.2608 14.7357 23.3795 15.0725 23.5708 15.3711C23.7698 15.6696 24.0263 15.9069 24.3401 16.0829C24.6539 16.2513 24.9984 16.3355 25.3735 16.3355C25.672 16.3355 25.9629 16.2896 26.2461 16.1978C26.5293 16.1059 26.7666 15.9758 26.9579 15.8074L27.4861 16.37C27.1646 16.6073 26.8278 16.7872 26.4757 16.9096C26.1313 17.0244 25.7524 17.0819 25.339 17.0819ZM23.2378 13.6832H27.0842C27.0383 13.3388 26.9235 13.0326 26.7398 12.7647C26.5637 12.4891 26.3418 12.2748 26.0739 12.1217C25.8059 11.961 25.5112 11.8806 25.1898 11.8806C24.8606 11.8806 24.5583 11.9571 24.2827 12.1102C24.0071 12.2633 23.7775 12.4777 23.5938 12.7532C23.4101 13.0211 23.2914 13.3311 23.2378 13.6832ZM29.1217 16.9785V11.2261H29.9714V12.0413C30.1474 11.7428 30.3694 11.5132 30.6373 11.3524C30.9129 11.184 31.2267 11.0998 31.5788 11.0998C31.7779 11.0998 31.9577 11.1266 32.1185 11.1802V11.961C32.019 11.9227 31.9195 11.8959 31.82 11.8806C31.7204 11.8653 31.6209 11.8576 31.5214 11.8576C31.1693 11.8576 30.8593 11.961 30.5914 12.1676C30.3311 12.3667 30.1245 12.6575 29.9714 13.0403V16.9785H29.1217ZM35.3856 17.0819C34.8345 17.0819 34.3331 16.9517 33.8815 16.6915C33.4375 16.4236 33.0816 16.0638 32.8137 15.6122C32.5534 15.1606 32.4233 14.6554 32.4233 14.0966C32.4233 13.5455 32.5496 13.0479 32.8022 12.604C33.0548 12.1523 33.3954 11.7964 33.8241 11.5361C34.2527 11.2682 34.7311 11.1343 35.2593 11.1343C35.7721 11.1343 36.2314 11.2682 36.6371 11.5361C37.0505 11.7964 37.3758 12.1523 37.6131 12.604C37.858 13.0479 37.9805 13.5455 37.9805 14.0966V14.3607H33.2615C33.3074 14.7357 33.426 15.0725 33.6174 15.3711C33.8164 15.6696 34.0728 15.9069 34.3867 16.0829C34.7005 16.2513 35.045 16.3355 35.42 16.3355C35.7186 16.3355 36.0094 16.2896 36.2927 16.1978C36.5759 16.1059 36.8132 15.9758 37.0045 15.8074L37.5327 16.37C37.2112 16.6073 36.8744 16.7872 36.5223 16.9096C36.1778 17.0244 35.7989 17.0819 35.3856 17.0819ZM33.2844 13.6832H37.1308C37.0849 13.3388 36.9701 13.0326 36.7864 12.7647C36.6103 12.4891 36.3883 12.2748 36.1204 12.1217C35.8525 11.961 35.5578 11.8806 35.2363 11.8806C34.9072 11.8806 34.6048 11.9571 34.3293 12.1102C34.0537 12.2633 33.8241 12.4777 33.6404 12.7532C33.4566 13.0211 33.338 13.3311 33.2844 13.6832ZM41.7976 17.0704C41.2618 17.0704 40.7719 16.9402 40.328 16.68C39.8917 16.4121 39.5434 16.0561 39.2831 15.6122C39.0305 15.1606 38.9042 14.6554 38.9042 14.0966C38.9042 13.5378 39.0305 13.0364 39.2831 12.5925C39.5434 12.1485 39.8917 11.7964 40.328 11.5361C40.7719 11.2682 41.2656 11.1343 41.8091 11.1343C42.1459 11.1343 42.4712 11.1917 42.7851 11.3065C43.0989 11.4137 43.386 11.5744 43.6462 11.7887V8.94126L44.4959 8.74607V16.9785H43.6577V16.37C43.1525 16.8369 42.5325 17.0704 41.7976 17.0704ZM41.878 16.3241C42.2378 16.3241 42.5707 16.2552 42.8769 16.1174C43.1908 15.9719 43.4472 15.7729 43.6462 15.5203V12.6728C43.4472 12.4279 43.1908 12.2365 42.8769 12.0988C42.5707 11.9533 42.2378 11.8806 41.878 11.8806C41.48 11.8806 41.1164 11.9763 40.7872 12.1676C40.4657 12.359 40.2093 12.6231 40.018 12.9599C39.8342 13.289 39.7424 13.6641 39.7424 14.0851C39.7424 14.5061 39.8342 14.885 40.018 15.2218C40.2093 15.5586 40.4657 15.8265 40.7872 16.0255C41.1164 16.2245 41.48 16.3241 41.878 16.3241ZM48.5683 16.9785V8.94126H51.8291C52.3496 8.94126 52.7974 9.02546 53.1725 9.19386C53.5552 9.36226 53.8499 9.60337 54.0566 9.91721C54.2633 10.2234 54.3666 10.587 54.3666 11.008C54.3666 11.4213 54.2556 11.7811 54.0336 12.0873C53.8193 12.3935 53.5208 12.6269 53.1381 12.7877C53.6203 12.9331 53.9992 13.1742 54.2748 13.511C54.558 13.8478 54.6996 14.2497 54.6996 14.7166C54.6996 15.1759 54.5848 15.5777 54.3551 15.9222C54.1332 16.259 53.8155 16.5192 53.4021 16.703C52.9965 16.8867 52.518 16.9785 51.9669 16.9785H48.5683ZM49.4524 12.4432H51.7832C52.3037 12.4432 52.7171 12.3207 53.0232 12.0758C53.3371 11.8308 53.494 11.4979 53.494 11.0769C53.494 10.6559 53.3371 10.3229 53.0232 10.078C52.7171 9.83301 52.3037 9.71054 51.7832 9.71054H49.4524V12.4432ZM49.4524 16.2092H51.898C52.4798 16.2092 52.9429 16.0715 53.2873 15.7959C53.6318 15.5203 53.804 15.1529 53.804 14.6936C53.804 14.2344 53.6318 13.8669 53.2873 13.5914C52.9429 13.3158 52.4798 13.178 51.898 13.178H49.4524V16.2092ZM56.0266 19.4356C55.9195 19.4356 55.8161 19.428 55.7166 19.4127C55.6248 19.405 55.5482 19.3935 55.487 19.3782V18.6089C55.6171 18.6395 55.7779 18.6549 55.9692 18.6549C56.4744 18.6549 56.8572 18.3563 57.1174 17.7593L57.4619 16.967L55.1196 11.2261H56.0611L57.9211 15.9452L59.9304 11.2261H60.849L57.9785 17.8741C57.8178 18.2415 57.6456 18.54 57.4619 18.7697C57.2782 18.9993 57.0677 19.1677 56.8304 19.2749C56.6007 19.382 56.3328 19.4356 56.0266 19.4356Z" fill="#888888"/>
<path d="M139.784 2.83087V2.33291H143.261V2.83087H141.803V6.96851H141.242V2.83087H139.784ZM144.127 2.33291H144.797L146.373 6.18082H146.427L148.002 2.33291H148.672V6.96851H148.147V3.44654H148.102L146.653 6.96851H146.146L144.698 3.44654H144.652V6.96851H144.127V2.33291Z" fill="#2F2F2F"/>
<path d="M77.7924 7.84482C77.0235 7.72102 76.73 7.427 75.4298 7.427C74.7868 7.427 73.9619 7.65913 73.3888 8.1698C72.8575 8.63404 72.4801 9.36136 72.4801 10.1042C72.4801 10.7077 72.6199 11.435 72.9414 11.8992C73.5845 12.8587 74.7448 13.4003 75.3459 13.8491C75.989 14.3443 76.6181 14.9633 76.6181 15.8299C76.6181 16.6036 76.017 17.1143 75.1642 17.1143C74.2276 17.1143 73.263 16.2632 72.9834 14.855C72.7457 14.7621 72.508 14.8395 72.2844 14.9014C72.2844 16.062 72.3962 16.8822 72.55 17.4547C73.3468 17.4547 73.3748 17.7642 75.318 17.7642C76.1708 17.7642 76.8418 17.5012 77.4289 16.9286C77.9182 16.4334 78.3796 15.7215 78.3796 14.7621C78.3796 13.9574 78.058 13.4158 77.6526 12.9051C77.1074 12.2397 76.3245 11.76 75.7793 11.4505C75.2201 11.141 74.2276 10.3363 74.2276 9.45421C74.2276 8.58762 74.6889 8.06147 75.4158 8.06147C76.6041 8.06147 76.9956 9.25304 77.2472 10.2744C77.4429 10.3363 77.7924 10.3363 77.9462 10.197C77.9462 9.37684 77.8903 8.74237 77.7924 7.84482Z" fill="#2F2F2F"/>
<path d="M90.3264 17.7642C91.6824 17.7642 92.9266 17.0524 93.8773 15.6751C93.8074 15.5358 93.5697 15.3501 93.4159 15.3501C92.4234 16.5572 91.291 16.9595 90.3124 16.9595C88.6907 16.9595 87.4046 14.855 87.4046 12.4409C87.4046 10.0423 88.523 8.06147 90.1866 8.06147C92.1158 8.06147 92.7449 9.26851 93.1084 10.5994C93.2761 10.6613 93.5417 10.6148 93.7095 10.522C93.6396 9.71729 93.5278 8.97449 93.4019 8.12337C92.689 8.046 92.0599 7.427 90.3404 7.427C87.6003 7.427 85.2936 9.33041 85.2936 12.7349C85.2936 14.1895 85.8528 15.9072 86.9852 16.7893C87.8799 17.5012 88.9703 17.7642 90.3264 17.7642Z" fill="#2F2F2F"/>
<path d="M103.645 9.53159C103.645 8.24717 103.855 8.1698 104.931 8.12337C105.015 8.03052 105.015 7.69008 104.931 7.59723C104.246 7.6127 103.31 7.62818 102.653 7.62818C102.01 7.62818 101.311 7.6127 100.612 7.59723C100.528 7.69008 100.528 8.03052 100.612 8.12337C101.45 8.1698 101.688 8.24717 101.688 9.53159V13.9574C101.688 15.4585 102.107 16.5572 102.904 17.1143C103.771 17.7488 105.057 17.7642 105.728 17.7642C108.594 17.7642 109.503 15.7989 109.503 13.0444V9.53159C109.503 8.24717 109.754 8.21622 110.579 8.12337C110.663 8.03052 110.663 7.69008 110.579 7.59723C110.034 7.6127 109.461 7.62818 109.083 7.62818C108.664 7.62818 107.937 7.6127 107.308 7.59723C107.224 7.69008 107.224 8.03052 107.308 8.12337C108.356 8.2317 108.594 8.24717 108.594 9.53159V13.3229C108.594 15.0561 108.384 17.1143 106.022 17.1143C105.351 17.1143 104.778 16.7893 104.358 16.3405C103.673 15.6132 103.645 14.4526 103.645 13.4467V9.53159Z" fill="#2F2F2F"/>
<path d="M119.919 8.91259C119.919 8.46382 119.989 8.24717 120.898 8.24717C121.541 8.24717 122.324 8.52572 122.324 10.0423C122.324 11.2803 121.694 11.7909 120.702 11.7909H119.919V8.91259ZM119.919 12.4409H120.912C122.352 12.4409 122.981 13.3848 122.981 14.7157C122.981 15.6442 122.687 16.9905 120.842 16.9905C120.003 16.9905 119.919 16.7584 119.919 16.3096V12.4409ZM118.954 7.62818C118.395 7.62818 116.802 7.59723 116.802 7.59723C116.662 7.69008 116.662 8.03052 116.802 8.12337C117.57 8.1698 117.962 8.2317 117.962 9.51611V15.7215C117.962 17.006 117.57 17.0679 116.802 17.1143C116.662 17.2071 116.662 17.5476 116.802 17.6404C116.802 17.6404 118.395 17.6095 118.954 17.6095C119.514 17.6095 120.408 17.6404 121.247 17.6404C124.113 17.6404 125.036 16.3096 125.036 14.7312C125.036 13.3694 124.421 12.4873 122.939 12.054V12.023C123.694 11.6516 124.281 10.8005 124.281 10.0113C124.281 8.94354 123.75 7.59723 120.94 7.59723C120.241 7.59723 119.388 7.62818 118.954 7.62818Z" fill="#2F2F2F"/>
<path d="M136.023 11.9611H134.891V9.03639C134.891 8.66499 135.129 8.27812 135.464 8.27812H136.652C137.701 8.27812 137.994 8.86617 138.302 9.93393C138.47 9.96488 138.763 9.93393 138.903 9.85656C138.833 9.22209 138.763 7.7365 138.735 7.6127C138.735 7.58175 138.721 7.56628 138.679 7.56628C138.442 7.6127 138.33 7.62818 137.994 7.62818H133.87C133.87 7.62818 132.417 7.6127 131.718 7.59723C131.634 7.69008 131.634 8.03052 131.718 8.12337C132.696 8.1698 132.934 8.24717 132.934 9.53159V15.7215C132.934 17.006 132.696 17.0679 131.718 17.1143C131.634 17.2071 131.634 17.5476 131.718 17.6404C132.403 17.625 133.884 17.6095 133.884 17.6095H137.17C137.841 17.6095 139.099 17.6404 139.099 17.6404C139.295 16.8667 139.365 15.8453 139.476 15.0561C139.323 14.9787 139.029 14.9323 138.847 14.9787C138.568 16.0929 137.939 16.9595 136.876 16.9595H135.464C135.157 16.9595 134.891 16.6346 134.891 16.2167V12.673H136.023C136.988 12.673 137.254 12.967 137.295 13.6634C137.379 13.7562 137.813 13.7562 137.897 13.6634C137.883 13.1218 137.869 12.8432 137.869 12.3016C137.869 11.7909 137.883 11.435 137.897 10.9708C137.813 10.8779 137.379 10.8779 137.295 10.9708C137.254 11.8219 136.96 11.9611 136.023 11.9611Z" fill="#2F2F2F"/>
</svg>
