<svg width="24" height="25" viewBox="0 0 24 25" fill="none" xmlns="http://www.w3.org/2000/svg">
<path fill-rule="evenodd" clip-rule="evenodd" d="M4.54 2.16235H7.92C9.33 2.16235 10.46 3.31235 10.46 4.72335V8.13235C10.46 9.55235 9.33 10.6924 7.92 10.6924H4.54C3.14 10.6924 2 9.55235 2 8.13235V4.72335C2 3.31235 3.14 2.16235 4.54 2.16235ZM4.54 13.632H7.92C9.33 13.632 10.46 14.773 10.46 16.193V19.602C10.46 21.012 9.33 22.162 7.92 22.162H4.54C3.14 22.162 2 21.012 2 19.602V16.193C2 14.773 3.14 13.632 4.54 13.632ZM19.461 2.16235H16.081C14.671 2.16235 13.541 3.31235 13.541 4.72335V8.13235C13.541 9.55235 14.671 10.6924 16.081 10.6924H19.461C20.861 10.6924 22.001 9.55235 22.001 8.13235V4.72335C22.001 3.31235 20.861 2.16235 19.461 2.16235ZM16.081 13.632H19.461C20.861 13.632 22.001 14.773 22.001 16.193V19.602C22.001 21.012 20.861 22.162 19.461 22.162H16.081C14.671 22.162 13.541 21.012 13.541 19.602V16.193C13.541 14.773 14.671 13.632 16.081 13.632Z" fill="url(#paint0_linear_337_8007)"/>
<defs>
<linearGradient id="paint0_linear_337_8007" x1="12.0005" y1="2.16235" x2="12.0005" y2="22.1621" gradientUnits="userSpaceOnUse">
<stop stop-color="#74BFB6"/>
<stop offset="0.0001" stop-color="#74BFB6"/>
<stop offset="1" stop-color="#3A5A40"/>
</linearGradient>
</defs>
</svg>
