<svg width="24" height="25" viewBox="0 0 24 25" fill="none" xmlns="http://www.w3.org/2000/svg">
<path fill-rule="evenodd" clip-rule="evenodd" d="M3 6.66235C3 4.03714 3.02811 3.16235 6.5 3.16235C9.97189 3.16235 10 4.03714 10 6.66235C10 9.28757 10.0111 10.1624 6.5 10.1624C2.98893 10.1624 3 9.28757 3 6.66235Z" stroke="white" stroke-width="1.5" stroke-linecap="round" stroke-linejoin="round"/>
<path fill-rule="evenodd" clip-rule="evenodd" d="M14 6.66235C14 4.03714 14.0281 3.16235 17.5 3.16235C20.9719 3.16235 21 4.03714 21 6.66235C21 9.28757 21.0111 10.1624 17.5 10.1624C13.9889 10.1624 14 9.28757 14 6.66235Z" stroke="white" stroke-width="1.5" stroke-linecap="round" stroke-linejoin="round"/>
<path fill-rule="evenodd" clip-rule="evenodd" d="M3 17.6624C3 15.0371 3.02811 14.1624 6.5 14.1624C9.97189 14.1624 10 15.0371 10 17.6624C10 20.2876 10.0111 21.1624 6.5 21.1624C2.98893 21.1624 3 20.2876 3 17.6624Z" stroke="white" stroke-width="1.5" stroke-linecap="round" stroke-linejoin="round"/>
<path fill-rule="evenodd" clip-rule="evenodd" d="M14 17.6624C14 15.0371 14.0281 14.1624 17.5 14.1624C20.9719 14.1624 21 15.0371 21 17.6624C21 20.2876 21.0111 21.1624 17.5 21.1624C13.9889 21.1624 14 20.2876 14 17.6624Z" stroke="white" stroke-width="1.5" stroke-linecap="round" stroke-linejoin="round"/>
</svg>
