<svg width="82" height="19" viewBox="0 0 82 19" fill="none" xmlns="http://www.w3.org/2000/svg">
<path d="M71.116 2.46178V1.94246H74.7418V2.46178H73.2216V6.77686H72.6361V2.46178H71.116ZM75.6453 1.94246H76.344L77.9869 5.95539H78.0436L79.6865 1.94246H80.3852V6.77686H79.8376V3.10385H79.7904L78.2796 6.77686H77.7509L76.2401 3.10385H76.1929V6.77686H75.6453V1.94246Z" fill="white"/>
<path d="M6.46592 7.94795C5.66406 7.81884 5.3579 7.51221 4.00202 7.51221C3.33137 7.51221 2.47119 7.75429 1.87344 8.28686C1.31943 8.77102 0.92579 9.52954 0.92579 10.3042C0.92579 10.9336 1.07158 11.6921 1.40691 12.1763C2.07755 13.1769 3.28764 13.7417 3.91454 14.2097C4.58519 14.7262 5.24126 15.3717 5.24126 16.2755C5.24126 17.0824 4.61435 17.615 3.72501 17.615C2.7482 17.615 1.74223 16.7274 1.45064 15.2587C1.2028 15.1619 0.954948 15.2426 0.72168 15.3072C0.72168 16.5176 0.838314 17.3729 0.998686 17.97C1.82971 17.97 1.85886 18.2928 3.88539 18.2928C4.77472 18.2928 5.47453 18.0185 6.08686 17.4213C6.59713 16.9049 7.07825 16.1625 7.07825 15.1619C7.07825 14.3227 6.74293 13.7579 6.32013 13.2253C5.75154 12.5313 4.9351 12.031 4.3665 11.7083C3.78333 11.3855 2.7482 10.5463 2.7482 9.62637C2.7482 8.72261 3.22932 8.17389 3.98744 8.17389C5.22668 8.17389 5.6349 9.41657 5.89733 10.4817C6.10144 10.5463 6.46592 10.5463 6.62629 10.401C6.62629 9.54567 6.56798 8.88399 6.46592 7.94795Z" fill="white"/>
<path d="M19.5373 18.2928C20.9515 18.2928 22.2491 17.5504 23.2405 16.1141C23.1676 15.9688 22.9197 15.7752 22.7593 15.7752C21.7242 17.034 20.5433 17.4536 19.5227 17.4536C17.8315 17.4536 16.4902 15.2587 16.4902 12.7411C16.4902 10.2396 17.6566 8.17389 19.3915 8.17389C21.4035 8.17389 22.0595 9.4327 22.4386 10.8206C22.6136 10.8852 22.8906 10.8368 23.0655 10.7399C22.9926 9.90072 22.876 9.12607 22.7448 8.23845C22.0012 8.15775 21.3452 7.51221 19.5519 7.51221C16.6944 7.51221 14.2888 9.49726 14.2888 13.0478C14.2888 14.5648 14.8719 16.3562 16.0529 17.2761C16.9859 18.0185 18.1231 18.2928 19.5373 18.2928Z" fill="white"/>
<path d="M33.4273 9.70706C33.4273 8.36755 33.646 8.28686 34.7686 8.23845C34.8561 8.14161 34.8561 7.78656 34.7686 7.68973C34.0542 7.70587 33.0774 7.72201 32.3922 7.72201C31.7215 7.72201 30.9926 7.70587 30.2636 7.68973C30.1761 7.78656 30.1761 8.14161 30.2636 8.23845C31.1384 8.28686 31.3862 8.36755 31.3862 9.70706V14.3227C31.3862 15.8882 31.8236 17.034 32.6546 17.615C33.5585 18.2767 34.8998 18.2928 35.5996 18.2928C38.5884 18.2928 39.536 16.2432 39.536 13.3705V9.70706C39.536 8.36755 39.7985 8.33528 40.6587 8.23845C40.7461 8.14161 40.7461 7.78656 40.6587 7.68973C40.0901 7.70587 39.4923 7.72201 39.0987 7.72201C38.6613 7.72201 37.9032 7.70587 37.2471 7.68973C37.1596 7.78656 37.1596 8.14161 37.2471 8.23845C38.3405 8.35142 38.5884 8.36755 38.5884 9.70706V13.661C38.5884 15.4686 38.3697 17.615 35.9058 17.615C35.206 17.615 34.6082 17.2761 34.1709 16.8081C33.4565 16.0495 33.4273 14.8391 33.4273 13.7901V9.70706Z" fill="white"/>
<path d="M50.3989 9.06152C50.3989 8.5935 50.4718 8.36755 51.4195 8.36755C52.0901 8.36755 52.9066 8.65805 52.9066 10.2396C52.9066 11.5307 52.2505 12.0633 51.2154 12.0633H50.3989V9.06152ZM50.3989 12.7411H51.434C52.9357 12.7411 53.5918 13.7256 53.5918 15.1135C53.5918 16.0818 53.2856 17.4859 51.3611 17.4859C50.4864 17.4859 50.3989 17.2438 50.3989 16.7758V12.7411ZM49.3929 7.72201C48.8098 7.72201 47.1477 7.68973 47.1477 7.68973C47.0019 7.78656 47.0019 8.14161 47.1477 8.23845C47.9496 8.28686 48.3578 8.35142 48.3578 9.69092V16.1625C48.3578 17.502 47.9496 17.5666 47.1477 17.615C47.0019 17.7118 47.0019 18.0669 47.1477 18.1637C47.1477 18.1637 48.8098 18.1314 49.3929 18.1314C49.9761 18.1314 50.9092 18.1637 51.784 18.1637C54.7727 18.1637 55.7349 16.7758 55.7349 15.1296C55.7349 13.7094 55.0934 12.7895 53.548 12.3377V12.3054C54.3353 11.9181 54.9477 11.0304 54.9477 10.2074C54.9477 9.09379 54.3936 7.68973 51.4632 7.68973C50.7342 7.68973 49.8449 7.72201 49.3929 7.72201Z" fill="white"/>
<path d="M67.1937 12.2408H66.0128V9.19062C66.0128 8.8033 66.2607 8.39983 66.6106 8.39983H67.8498C68.9432 8.39983 69.2494 9.0131 69.5702 10.1267C69.7451 10.1589 70.0513 10.1267 70.1971 10.046C70.1242 9.38429 70.0513 7.83498 70.0221 7.70587C70.0221 7.67359 70.0075 7.65745 69.9638 7.65745C69.7159 7.70587 69.5993 7.72201 69.2494 7.72201H64.9485C64.9485 7.72201 63.4323 7.70587 62.7033 7.68973C62.6158 7.78656 62.6158 8.14161 62.7033 8.23845C63.7239 8.28686 63.9717 8.36755 63.9717 9.70706V16.1625C63.9717 17.502 63.7239 17.5666 62.7033 17.615C62.6158 17.7118 62.6158 18.0669 62.7033 18.1637C63.4177 18.1476 64.9631 18.1314 64.9631 18.1314H68.3892C69.089 18.1314 70.4012 18.1637 70.4012 18.1637C70.6053 17.3568 70.6782 16.2916 70.7948 15.4686C70.6344 15.3879 70.3283 15.3394 70.1387 15.3879C69.8472 16.5498 69.1911 17.4536 68.0831 17.4536H66.6106C66.2898 17.4536 66.0128 17.1147 66.0128 16.6789V12.9832H67.1937C68.1997 12.9832 68.4767 13.2898 68.5204 14.0161C68.6079 14.1129 69.0599 14.1129 69.1473 14.0161C69.1328 13.4512 69.1182 13.1607 69.1182 12.5959C69.1182 12.0633 69.1328 11.6921 69.1473 11.208C69.0599 11.1111 68.6079 11.1111 68.5204 11.208C68.4767 12.0956 68.1705 12.2408 67.1937 12.2408Z" fill="white"/>
</svg>
