<svg width="98" height="16" viewBox="0 0 98 16" fill="none" xmlns="http://www.w3.org/2000/svg">
<path d="M8.60058 1.31503C7.48622 1.1356 7.06073 0.709473 5.17644 0.709473C4.24443 0.709473 3.04902 1.04589 2.21831 1.78602C1.44838 2.45885 0.901332 3.51297 0.901332 4.58951C0.901332 5.4642 1.10394 6.51832 1.56995 7.19116C2.50197 8.58169 4.18364 9.36667 5.05487 10.0171C5.98689 10.7348 6.89864 11.6319 6.89864 12.8879C6.89864 14.0093 6.02741 14.7494 4.79148 14.7494C3.43398 14.7494 2.03596 13.5158 1.63073 11.4749C1.28629 11.3403 0.941855 11.4525 0.617676 11.5422C0.617676 13.2243 0.779765 14.413 1.00264 15.2428C2.15753 15.2428 2.19805 15.6914 5.01435 15.6914C6.25028 15.6914 7.22282 15.3101 8.07379 14.4802C8.78293 13.7626 9.45155 12.7309 9.45155 11.3403C9.45155 10.1741 8.98555 9.3891 8.39797 8.64897C7.60778 7.68457 6.47316 6.98931 5.68297 6.54075C4.87252 6.09219 3.43398 4.92593 3.43398 3.64754C3.43398 2.39157 4.1026 1.62902 5.15618 1.62902C6.87838 1.62902 7.44569 3.35597 7.8104 4.83622C8.09405 4.92593 8.60058 4.92593 8.82345 4.72408C8.82345 3.5354 8.74241 2.61585 8.60058 1.31503Z" fill="url(#paint0_linear_237_7328)"/>
<path d="M26.7662 15.6914C28.7315 15.6914 30.5348 14.6597 31.9126 12.6636C31.8112 12.4617 31.4668 12.1926 31.2439 12.1926C29.8054 13.942 28.1642 14.5251 26.7459 14.5251C24.3957 14.5251 22.5316 11.4749 22.5316 7.97614C22.5316 4.4998 24.1525 1.62902 26.5636 1.62902C29.3596 1.62902 30.2714 3.3784 30.7982 5.30721C31.0413 5.39692 31.4263 5.32964 31.6694 5.19507C31.5681 4.02881 31.406 2.95227 31.2237 1.71873C30.1903 1.60659 29.2786 0.709473 26.7865 0.709473C22.8153 0.709473 19.4722 3.46811 19.4722 8.40227C19.4722 10.5105 20.2826 13 21.9238 14.2784C23.2205 15.3101 24.8009 15.6914 26.7662 15.6914Z" fill="url(#paint1_linear_237_7328)"/>
<path d="M46.0695 3.75968C46.0695 1.89816 46.3734 1.78602 47.9335 1.71873C48.0551 1.58416 48.0551 1.09075 47.9335 0.956181C46.9407 0.978609 45.5832 1.00104 44.6309 1.00104C43.6989 1.00104 42.6859 0.978609 41.6728 0.956181C41.5512 1.09075 41.5512 1.58416 41.6728 1.71873C42.8885 1.78602 43.2329 1.89816 43.2329 3.75968V10.1741C43.2329 12.3496 43.8407 13.942 44.9956 14.7494C46.2518 15.6689 48.1159 15.6914 49.0884 15.6914C53.2419 15.6914 54.5589 12.843 54.5589 8.85083V3.75968C54.5589 1.89816 54.9236 1.8533 56.119 1.71873C56.2406 1.58416 56.2406 1.09075 56.119 0.956181C55.3288 0.978609 54.4981 1.00104 53.9511 1.00104C53.3432 1.00104 52.2897 0.978609 51.3779 0.956181C51.2563 1.09075 51.2563 1.58416 51.3779 1.71873C52.8975 1.87573 53.2419 1.89816 53.2419 3.75968V9.25453C53.2419 11.7665 52.938 14.7494 49.5139 14.7494C48.5413 14.7494 47.7106 14.2784 47.1028 13.628C46.11 12.5739 46.0695 10.8918 46.0695 9.43395V3.75968Z" fill="url(#paint2_linear_237_7328)"/>
<path d="M69.6553 2.86256C69.6553 2.21215 69.7566 1.89816 71.0736 1.89816C72.0056 1.89816 73.1402 2.30186 73.1402 4.4998C73.1402 6.29404 72.2284 7.03416 70.7899 7.03416H69.6553V2.86256ZM69.6553 7.97614H71.0938C73.1807 7.97614 74.0925 9.34424 74.0925 11.273C74.0925 12.6187 73.667 14.57 70.9925 14.57C69.7768 14.57 69.6553 14.2335 69.6553 13.5831V7.97614ZM68.2573 1.00104C67.4468 1.00104 65.137 0.956181 65.137 0.956181C64.9344 1.09075 64.9344 1.58416 65.137 1.71873C66.2514 1.78602 66.8187 1.87573 66.8187 3.73725V12.7309C66.8187 14.5924 66.2514 14.6821 65.137 14.7494C64.9344 14.884 64.9344 15.3774 65.137 15.5119C65.137 15.5119 67.4468 15.4671 68.2573 15.4671C69.0677 15.4671 70.3644 15.5119 71.5801 15.5119C75.7336 15.5119 77.0709 13.5831 77.0709 11.2955C77.0709 9.32181 76.1794 8.04342 74.0317 7.41544V7.37058C75.1258 6.83231 75.9768 5.59877 75.9768 4.45494C75.9768 2.90741 75.2068 0.956181 71.1343 0.956181C70.1213 0.956181 68.8854 1.00104 68.2573 1.00104Z" fill="url(#paint3_linear_237_7328)"/>
<path d="M92.9954 7.28087H91.3543V3.04198C91.3543 2.50371 91.6987 1.94301 92.185 1.94301H93.9072C95.4268 1.94301 95.8523 2.79528 96.298 4.34281C96.5411 4.38766 96.9666 4.3428 97.1692 4.23066C97.0679 3.31112 96.9666 1.15803 96.9261 0.978609C96.9261 0.933753 96.9058 0.911324 96.845 0.911324C96.5006 0.978609 96.3385 1.00104 95.8522 1.00104H89.8752C89.8752 1.00104 87.768 0.978609 86.755 0.956181C86.6334 1.09075 86.6334 1.58416 86.755 1.71873C88.1733 1.78602 88.5177 1.89816 88.5177 3.75968V12.7309C88.5177 14.5924 88.1733 14.6821 86.755 14.7494C86.6334 14.884 86.6334 15.3774 86.755 15.5119C87.7478 15.4895 89.8955 15.4671 89.8955 15.4671H94.6568C95.6294 15.4671 97.4529 15.5119 97.4529 15.5119C97.7365 14.3905 97.8378 12.9103 97.9999 11.7665C97.7771 11.6543 97.3516 11.587 97.0882 11.6543C96.683 13.2691 95.7712 14.5251 94.2314 14.5251H92.185C91.7392 14.5251 91.3543 14.0541 91.3543 13.4486V8.31256H92.9954C94.3934 8.31256 94.7784 8.73869 94.8392 9.74795C94.9608 9.88251 95.5889 9.88251 95.7104 9.74795C95.6902 8.96297 95.6699 8.55926 95.6699 7.77428C95.6699 7.03416 95.6902 6.51832 95.7104 5.84548C95.5889 5.71091 94.9608 5.71091 94.8392 5.84548C94.7784 7.07902 94.3529 7.28087 92.9954 7.28087Z" fill="url(#paint4_linear_237_7328)"/>
<defs>
<linearGradient id="paint0_linear_237_7328" x1="49.3088" y1="0.709473" x2="49.3088" y2="15.6914" gradientUnits="userSpaceOnUse">
<stop stop-color="#74BFB6"/>
<stop offset="0.0001" stop-color="#74BFB6"/>
<stop offset="1" stop-color="#3A5A40"/>
</linearGradient>
<linearGradient id="paint1_linear_237_7328" x1="49.3088" y1="0.709473" x2="49.3088" y2="15.6914" gradientUnits="userSpaceOnUse">
<stop stop-color="#74BFB6"/>
<stop offset="0.0001" stop-color="#74BFB6"/>
<stop offset="1" stop-color="#3A5A40"/>
</linearGradient>
<linearGradient id="paint2_linear_237_7328" x1="49.3088" y1="0.709473" x2="49.3088" y2="15.6914" gradientUnits="userSpaceOnUse">
<stop stop-color="#74BFB6"/>
<stop offset="0.0001" stop-color="#74BFB6"/>
<stop offset="1" stop-color="#3A5A40"/>
</linearGradient>
<linearGradient id="paint3_linear_237_7328" x1="49.3088" y1="0.709473" x2="49.3088" y2="15.6914" gradientUnits="userSpaceOnUse">
<stop stop-color="#74BFB6"/>
<stop offset="0.0001" stop-color="#74BFB6"/>
<stop offset="1" stop-color="#3A5A40"/>
</linearGradient>
<linearGradient id="paint4_linear_237_7328" x1="49.3088" y1="0.709473" x2="49.3088" y2="15.6914" gradientUnits="userSpaceOnUse">
<stop stop-color="#74BFB6"/>
<stop offset="0.0001" stop-color="#74BFB6"/>
<stop offset="1" stop-color="#3A5A40"/>
</linearGradient>
</defs>
</svg>
