<svg width="24" height="25" viewBox="0 0 24 25" fill="none" xmlns="http://www.w3.org/2000/svg">
<path fill-rule="evenodd" clip-rule="evenodd" d="M20.8074 7.78597L20.185 6.70588C19.6584 5.79195 18.4914 5.47667 17.5763 6.00107V6.00107C17.1406 6.2577 16.6208 6.33051 16.1314 6.20344C15.6421 6.07637 15.2233 5.75987 14.9676 5.32372C14.803 5.0465 14.7146 4.73075 14.7113 4.40839V4.40839C14.7261 3.89158 14.5311 3.39076 14.1708 3.02002C13.8104 2.64929 13.3153 2.44022 12.7982 2.44043H11.5442C11.0377 2.44042 10.552 2.64227 10.1947 3.0013C9.83742 3.36033 9.63791 3.84695 9.64034 4.35347V4.35347C9.62533 5.39928 8.77321 6.23916 7.7273 6.23906C7.40494 6.23571 7.08919 6.1473 6.81197 5.98276V5.98276C5.89679 5.45837 4.72985 5.77365 4.20327 6.68757L3.53508 7.78597C3.00914 8.69875 3.32013 9.86496 4.23073 10.3947V10.3947C4.82263 10.7364 5.18726 11.3679 5.18726 12.0514C5.18726 12.7349 4.82263 13.3664 4.23073 13.7082V13.7082C3.32129 14.2343 3.00996 15.3977 3.53508 16.3077V16.3077L4.16666 17.397C4.41338 17.8421 4.82734 18.1706 5.31693 18.3098C5.80652 18.4489 6.33137 18.3872 6.77535 18.1384V18.1384C7.21181 17.8837 7.73192 17.8139 8.22007 17.9446C8.70822 18.0752 9.12397 18.3954 9.3749 18.834C9.53943 19.1112 9.62784 19.427 9.63119 19.7494V19.7494C9.63119 20.8059 10.4877 21.6624 11.5442 21.6624H12.7982C13.8512 21.6624 14.7062 20.8115 14.7113 19.7585V19.7585C14.7088 19.2504 14.9096 18.7624 15.2689 18.4031C15.6282 18.0438 16.1162 17.843 16.6243 17.8455C16.9459 17.8541 17.2604 17.9421 17.5397 18.1018V18.1018C18.4524 18.6277 19.6186 18.3167 20.1484 17.4061V17.4061L20.8074 16.3077C21.0625 15.8699 21.1325 15.3484 21.0019 14.8587C20.8714 14.3691 20.551 13.9517 20.1117 13.699V13.699C19.6725 13.4463 19.3521 13.0289 19.2215 12.5393C19.091 12.0497 19.161 11.5282 19.4161 11.0903C19.582 10.8007 19.8221 10.5606 20.1117 10.3947V10.3947C21.0169 9.86525 21.3271 8.70585 20.8074 7.79512V7.79512V7.78597Z" stroke="white" stroke-width="1.5" stroke-linecap="round" stroke-linejoin="round"/>
<circle cx="12.1752" cy="12.0514" r="2.63616" stroke="white" stroke-width="1.5" stroke-linecap="round" stroke-linejoin="round"/>
</svg>
