<svg width="20" height="21" viewBox="0 0 20 21" fill="none" xmlns="http://www.w3.org/2000/svg">
<path fill-rule="evenodd" clip-rule="evenodd" d="M18.4023 12.4836C18.76 12.6736 19.036 12.9736 19.2301 13.2736C19.6083 13.8936 19.5776 14.6536 19.2097 15.3236L18.4943 16.5236C18.1162 17.1636 17.411 17.5636 16.6855 17.5636C16.3278 17.5636 15.9292 17.4636 15.6022 17.2636C15.3365 17.0936 15.0299 17.0336 14.7029 17.0336C13.6911 17.0336 12.8429 17.8636 12.8122 18.8536C12.8122 20.0036 11.872 20.9036 10.6968 20.9036H9.30692C8.12145 20.9036 7.18125 20.0036 7.18125 18.8536C7.16081 17.8636 6.31259 17.0336 5.30085 17.0336C4.96361 17.0336 4.65702 17.0936 4.40153 17.2636C4.0745 17.4636 3.66572 17.5636 3.31825 17.5636C2.58245 17.5636 1.87729 17.1636 1.49917 16.5236L0.79402 15.3236C0.415896 14.6736 0.395456 13.8936 0.773581 13.2736C0.937094 12.9736 1.24368 12.6736 1.59115 12.4836C1.87729 12.3436 2.06125 12.1136 2.23498 11.8436C2.74596 10.9836 2.43937 9.85356 1.57071 9.34356C0.55897 8.77356 0.231943 7.50356 0.814459 6.51356L1.49917 5.33356C2.09191 4.34356 3.35913 3.99356 4.38109 4.57356C5.27019 5.05356 6.425 4.73356 6.9462 3.88356C7.10972 3.60356 7.20169 3.30356 7.18125 3.00356C7.16081 2.61356 7.27323 2.24356 7.4674 1.94356C7.84553 1.32356 8.53024 0.923564 9.27627 0.903564H10.7172C11.4735 0.903564 12.1582 1.32356 12.5363 1.94356C12.7203 2.24356 12.8429 2.61356 12.8122 3.00356C12.7918 3.30356 12.8838 3.60356 13.0473 3.88356C13.5685 4.73356 14.7233 5.05356 15.6226 4.57356C16.6344 3.99356 17.9118 4.34356 18.4943 5.33356L19.179 6.51356C19.7718 7.50356 19.4447 8.77356 18.4228 9.34356C17.5541 9.85356 17.2475 10.9836 17.7687 11.8436C17.9322 12.1136 18.1162 12.3436 18.4023 12.4836ZM7.10938 10.9136C7.10938 12.4836 8.40726 13.7336 10.0117 13.7336C11.6162 13.7336 12.8834 12.4836 12.8834 10.9136C12.8834 9.34356 11.6162 8.08356 10.0117 8.08356C8.40726 8.08356 7.10938 9.34356 7.10938 10.9136Z" fill="url(#paint0_linear_421_7182)"/>
<defs>
<linearGradient id="paint0_linear_421_7182" x1="10" y1="0.903564" x2="10" y2="20.9036" gradientUnits="userSpaceOnUse">
<stop stop-color="#74BFB6"/>
<stop offset="0.0001" stop-color="#74BFB6"/>
<stop offset="1" stop-color="#3A5A40"/>
</linearGradient>
</defs>
</svg>
