<svg width="24" height="25" viewBox="0 0 24 25" fill="none" xmlns="http://www.w3.org/2000/svg">
<path fill-rule="evenodd" clip-rule="evenodd" d="M16.1588 8.39521C16.1588 10.7449 14.2856 12.629 11.9495 12.629C9.61342 12.629 7.74023 10.7449 7.74023 8.39521C7.74023 6.04462 9.61342 4.16235 11.9495 4.16235C14.2856 4.16235 16.1588 6.04462 16.1588 8.39521ZM11.9488 20.1624C8.51765 20.1624 5.58789 19.6184 5.58789 17.4425C5.58789 15.2658 8.49885 14.702 11.9488 14.702C15.38 14.702 18.3098 15.2459 18.3098 17.4227C18.3098 19.5986 15.3988 20.1624 11.9488 20.1624ZM17.9578 8.47158C17.9578 9.66939 17.6005 10.7852 16.9737 11.7129C16.9092 11.8083 16.9666 11.9371 17.0803 11.9569C17.237 11.9839 17.399 11.9993 17.5638 12.0038C19.2068 12.047 20.6816 10.9834 21.089 9.3821C21.6925 7.00359 19.9205 4.86826 17.6641 4.86826C17.4187 4.86826 17.1841 4.89437 16.9558 4.9412C16.9245 4.94841 16.8913 4.96282 16.8734 4.99074C16.8519 5.02496 16.8681 5.07089 16.8895 5.10061C17.5674 6.05616 17.9578 7.22154 17.9578 8.47158ZM20.6783 13.6749C21.7824 13.892 22.5086 14.3351 22.8094 14.979C23.0637 15.5077 23.0637 16.121 22.8094 16.6487C22.3492 17.6475 20.8655 17.9681 20.2888 18.051C20.1698 18.069 20.074 17.9654 20.0865 17.8456C20.3811 15.0781 18.0378 13.7659 17.4316 13.4642C17.4057 13.4507 17.4003 13.43 17.403 13.4173C17.4048 13.4083 17.4155 13.3939 17.4352 13.3912C18.747 13.3669 20.1572 13.547 20.6783 13.6749ZM6.43768 12.0037C6.60243 11.9992 6.7636 11.9848 6.9212 11.9568C7.03491 11.937 7.09222 11.8082 7.02775 11.7128C6.40097 10.7852 6.0437 9.6693 6.0437 8.47149C6.0437 7.22145 6.4341 6.05606 7.11192 5.10052C7.13341 5.0708 7.14863 5.02487 7.12803 4.99065C7.11013 4.96363 7.0761 4.94832 7.04566 4.94111C6.81643 4.89428 6.58184 4.86816 6.3365 4.86816C4.08008 4.86816 2.30808 7.0035 2.91248 9.38201C3.31989 10.9833 4.79461 12.0469 6.43768 12.0037ZM6.59694 13.4168C6.59962 13.4303 6.59425 13.4501 6.56918 13.4645C5.9621 13.7662 3.61883 15.0784 3.91342 17.8451C3.92595 17.9658 3.83104 18.0684 3.71195 18.0513C3.13531 17.9685 1.65163 17.6479 1.19139 16.6491C0.936203 16.1204 0.936203 15.508 1.19139 14.9794C1.49225 14.3354 2.21752 13.8923 3.32156 13.6744C3.84358 13.5474 5.25294 13.3673 6.5656 13.3916C6.5853 13.3943 6.59515 13.4087 6.59694 13.4168Z" fill="url(#paint0_linear_337_7928)"/>
<defs>
<linearGradient id="paint0_linear_337_7928" x1="12" y1="4.16235" x2="12" y2="20.1624" gradientUnits="userSpaceOnUse">
<stop stop-color="#74BFB6"/>
<stop offset="0.0001" stop-color="#74BFB6"/>
<stop offset="1" stop-color="#3A5A40"/>
</linearGradient>
</defs>
</svg>
