<svg width="48" height="40" viewBox="0 0 48 40" fill="none" xmlns="http://www.w3.org/2000/svg">
<rect width="48" height="40" rx="8" fill="#F5FAF8"/>
<path fill-rule="evenodd" clip-rule="evenodd" d="M26.2124 15.7624C26.2124 18.4062 24.0489 20.5248 21.3493 20.5248C18.6507 20.5248 16.4863 18.4062 16.4863 15.7624C16.4863 13.1187 18.6507 11 21.3493 11C24.0489 11 26.2124 13.1187 26.2124 15.7624ZM14 25.9174C14 23.47 17.3855 22.8577 21.3493 22.8577C25.3347 22.8577 28.6987 23.4911 28.6987 25.9404C28.6987 28.3877 25.3131 29 21.3493 29C17.364 29 14 28.3666 14 25.9174ZM28.1728 15.8488C28.1728 17.1951 27.7599 18.4513 27.0358 19.4948C26.9605 19.6022 27.027 19.7468 27.1581 19.7698C27.3401 19.7996 27.527 19.8178 27.7178 19.8216C29.616 19.8705 31.3196 18.6736 31.7902 16.8712C32.4879 14.1968 30.4409 11.7954 27.8333 11.7954C27.5505 11.7954 27.2794 11.8242 27.0153 11.8769C26.9791 11.8846 26.9399 11.9018 26.9203 11.9325C26.8949 11.9718 26.9135 12.0225 26.9389 12.0561C27.7227 13.1322 28.1728 14.4421 28.1728 15.8488ZM31.3166 21.7023C32.5926 21.9466 33.4311 22.444 33.7785 23.1693C34.073 23.7634 34.073 24.4534 33.7785 25.0475C33.2472 26.1705 31.5329 26.5318 30.8665 26.6247C30.7286 26.6439 30.618 26.5289 30.6327 26.3928C30.9732 23.2805 28.2657 21.8048 27.5651 21.4656C27.5358 21.4493 27.5289 21.4263 27.5319 21.411C27.5338 21.4014 27.5465 21.3861 27.5691 21.3832C29.0847 21.3545 30.7149 21.5586 31.3166 21.7023Z" fill="url(#paint0_linear_106_3927)"/>
<defs>
<linearGradient id="paint0_linear_106_3927" x1="23.9997" y1="11" x2="23.9997" y2="29" gradientUnits="userSpaceOnUse">
<stop stop-color="#74BFB6"/>
<stop offset="0.0001" stop-color="#74BFB6"/>
<stop offset="1" stop-color="#3A5A40"/>
</linearGradient>
</defs>
</svg>
