<svg width="48" height="48" viewBox="0 0 48 48" fill="none" xmlns="http://www.w3.org/2000/svg">
<g id="chrome logo">
<path id="Path" d="M15.0293 23.8012C15.0293 28.7043 19.053 32.693 23.9989 32.693C28.9446 32.693 32.9679 28.7042 32.9679 23.8012C32.9679 18.8982 28.9445 14.9092 23.9989 14.9092C19.053 14.9091 15.0293 18.8981 15.0293 23.8012Z" fill="#73A1FB"/>
<path id="Path_2" d="M44.6556 12.0556C44.7254 11.9337 44.7242 11.7841 44.6519 11.6635C42.5627 8.17517 39.5896 5.25317 36.0538 3.21356C32.4098 1.11121 28.2423 0 24.0023 0C16.6645 0 9.82615 3.26459 5.24041 8.95663C5.13925 9.0821 5.12603 9.25599 5.20703 9.39504L11.9633 20.996C12.0341 21.1176 12.1648 21.1909 12.3039 21.1909C12.3215 21.1909 12.3394 21.1897 12.3572 21.1873C12.5156 21.1659 12.6451 21.0517 12.6851 20.8984C14.0173 15.7811 18.6712 12.2071 24.0023 12.2071C24.3332 12.2071 24.6748 12.2221 25.0182 12.251C25.0294 12.2522 25.0407 12.2526 25.0519 12.2526H44.3136C44.4551 12.2528 44.5857 12.1776 44.6556 12.0556Z" fill="#DA143A"/>
<path id="Path_3" d="M27.5468 35.0917C27.4491 34.9664 27.285 34.9126 27.1303 34.9549C26.1142 35.2354 25.0611 35.3776 24.0003 35.3776C19.4928 35.3776 15.3384 32.7568 13.4164 28.7009C13.4117 28.6909 13.4065 28.6812 13.401 28.6715L3.76307 12.1227C3.69285 12.0018 3.56291 11.9277 3.42238 11.9277C3.42172 11.9277 3.42097 11.9277 3.42032 11.9277C3.27904 11.9285 3.14882 12.0042 3.07963 12.1262C1.06501 15.6701 0 19.7041 0 23.7919C0 29.5264 2.0868 35.0656 5.87603 39.3891C9.62767 43.6695 14.7925 46.4865 20.4195 47.3212C20.439 47.3242 20.4585 47.3254 20.4779 47.3254C20.6169 47.3254 20.7476 47.2521 20.8185 47.1304L27.5766 35.526C27.6565 35.3885 27.6446 35.2169 27.5468 35.0917Z" fill="#78B86D"/>
<path id="Path_4" d="M45.9824 14.855H32.4519C32.292 14.855 32.148 14.9509 32.0878 15.0976C32.0273 15.2442 32.0625 15.4127 32.1766 15.5235C34.4405 17.7237 35.6873 20.6603 35.6873 23.7926C35.6873 26.1638 34.9656 28.4457 33.6 30.3919C33.5937 30.4009 33.5879 30.4101 33.5824 30.4197L23.9277 46.9973C23.857 47.1187 23.8575 47.2683 23.9288 47.3894C23.9995 47.5091 24.1289 47.5824 24.2685 47.5824C24.2699 47.5824 24.2715 47.5824 24.2729 47.5824C30.6263 47.5123 36.5882 45.0064 41.0603 40.5268C45.5359 36.0435 48.0008 30.1005 48.0008 23.7926C48.0008 20.7944 47.445 17.8708 46.3486 15.1026C46.2895 14.9531 46.1443 14.855 45.9824 14.855Z" fill="#F1CB30"/>
</g>
</svg>
