<svg width="24" height="24" viewBox="0 0 24 24" fill="none" xmlns="http://www.w3.org/2000/svg">
<path d="M19.3238 9.46826C19.3238 9.46826 18.7808 16.2033 18.4658 19.0403C18.3158 20.3953 17.4788 21.1893 16.1078 21.2143C13.4988 21.2613 10.8868 21.2643 8.27881 21.2093C6.95981 21.1823 6.13681 20.3783 5.98981 19.0473C5.67281 16.1853 5.13281 9.46826 5.13281 9.46826" stroke="#D22D2D" stroke-width="1.5" stroke-linecap="round" stroke-linejoin="round"/>
<path d="M20.708 6.23975H3.75" stroke="#D22D2D" stroke-width="1.5" stroke-linecap="round" stroke-linejoin="round"/>
<path d="M17.4403 6.23973C16.6553 6.23973 15.9793 5.68473 15.8253 4.91573L15.5823 3.69973C15.4323 3.13873 14.9243 2.75073 14.3453 2.75073H10.1123C9.53333 2.75073 9.02533 3.13873 8.87533 3.69973L8.63233 4.91573C8.47833 5.68473 7.80233 6.23973 7.01733 6.23973" stroke="#D22D2D" stroke-width="1.5" stroke-linecap="round" stroke-linejoin="round"/>
</svg>
